<svg width="19" height="19" viewBox="0 0 19 19" fill="none" xmlns="http://www.w3.org/2000/svg">
<path d="M9.48389 18.9678C14.7217 18.9678 18.9678 14.7217 18.9678 9.48389C18.9678 4.24608 14.7217 0 9.48389 0C4.24608 0 0 4.24608 0 9.48389C0 14.7217 4.24608 18.9678 9.48389 18.9678Z" fill="#0866FF"/>
<path d="M9.48117 13.8296C9.33637 13.8296 9.21599 13.7809 9.12002 13.6835C9.02405 13.5861 8.97607 13.4655 8.97607 13.3215V9.59571H5.25025C5.1063 9.59571 4.98564 9.54674 4.88826 9.4488C4.79088 9.35084 4.74219 9.22947 4.74219 9.08468C4.74219 8.93988 4.79088 8.8195 4.88826 8.72353C4.98564 8.62757 5.1063 8.57958 5.25025 8.57958H8.97607V4.85377C8.97607 4.70982 9.02504 4.58915 9.12298 4.49177C9.22094 4.39439 9.34231 4.3457 9.48709 4.3457C9.63189 4.3457 9.75228 4.39439 9.84824 4.49177C9.94421 4.58915 9.9922 4.70982 9.9922 4.85377V8.57958H13.718C13.862 8.57958 13.9826 8.62855 14.08 8.7265C14.1774 8.82445 14.2261 8.94582 14.2261 9.09061C14.2261 9.23541 14.1774 9.35579 14.08 9.45176C13.9826 9.54773 13.862 9.59571 13.718 9.59571H9.9922V13.3215C9.9922 13.4655 9.94322 13.5861 9.84528 13.6835C9.74733 13.7809 9.62595 13.8296 9.48117 13.8296Z" fill="white"/>
</svg>
