<svg width="204" height="70" viewBox="0 0 204 70" fill="none" xmlns="http://www.w3.org/2000/svg">
<g filter="url(#filter0_d_3_43069)">
<path d="M7 33C7 17.536 19.536 5 35 5H169C184.464 5 197 17.536 197 33C197 48.464 184.464 61 169 61H35C19.536 61 7 48.464 7 33Z" fill="#0866FF" shape-rendering="crispEdges"/>
<path d="M34 24C34 23.4477 34.4477 23 35 23C35.5523 23 36 23.4477 36 24V32H43.799C44.3513 32 44.799 32.4477 44.799 33C44.799 33.5523 44.3513 34 43.799 34H36V41.799C36 42.3513 35.5523 42.799 35 42.799C34.4477 42.799 34 42.3513 34 41.799V34H26C25.4477 34 25 33.5523 25 33C25 32.4477 25.4477 32 26 32H34V24Z" fill="white"/>
<path d="M57.8072 39.5H55.4165L59.7692 27.1364H62.5341L66.8928 39.5H64.5021L61.1999 29.6719H61.1033L57.8072 39.5ZM57.8857 34.6523H64.4055V36.4513H57.8857V34.6523ZM71.5835 39.663C70.855 39.663 70.203 39.4759 69.6275 39.1016C69.052 38.7273 68.5972 38.1839 68.2631 37.4716C67.9291 36.7592 67.7621 35.8939 67.7621 34.8757C67.7621 33.8454 67.9311 32.9761 68.2692 32.2678C68.6113 31.5554 69.0721 31.0181 69.6516 30.6559C70.2312 30.2897 70.8771 30.1065 71.5895 30.1065C72.1328 30.1065 72.5795 30.1991 72.9297 30.3842C73.2798 30.5653 73.5575 30.7847 73.7628 31.0423C73.968 31.2958 74.127 31.5353 74.2397 31.7607H74.3303V27.1364H76.5217V39.5H74.3725V38.0391H74.2397C74.127 38.2644 73.964 38.5039 73.7507 38.7575C73.5374 39.007 73.2557 39.2203 72.9055 39.3974C72.5554 39.5745 72.1147 39.663 71.5835 39.663ZM72.1932 37.87C72.656 37.87 73.0504 37.7453 73.3764 37.4957C73.7024 37.2422 73.9499 36.89 74.119 36.4393C74.288 35.9885 74.3725 35.4633 74.3725 34.8636C74.3725 34.264 74.288 33.7428 74.119 33.3001C73.954 32.8574 73.7085 32.5133 73.3825 32.2678C73.0605 32.0223 72.6641 31.8995 72.1932 31.8995C71.7062 31.8995 71.2997 32.0263 70.9737 32.2798C70.6477 32.5334 70.4022 32.8835 70.2372 33.3303C70.0722 33.777 69.9897 34.2881 69.9897 34.8636C69.9897 35.4432 70.0722 35.9603 70.2372 36.4151C70.4063 36.8659 70.6538 37.2221 70.9798 37.4837C71.3098 37.7412 71.7143 37.87 72.1932 37.87ZM82.2915 39.663C81.563 39.663 80.911 39.4759 80.3355 39.1016C79.76 38.7273 79.3052 38.1839 78.9711 37.4716C78.6371 36.7592 78.4701 35.8939 78.4701 34.8757C78.4701 33.8454 78.6391 32.9761 78.9772 32.2678C79.3193 31.5554 79.7801 31.0181 80.3596 30.6559C80.9392 30.2897 81.5851 30.1065 82.2975 30.1065C82.8408 30.1065 83.2876 30.1991 83.6377 30.3842C83.9878 30.5653 84.2655 30.7847 84.4708 31.0423C84.676 31.2958 84.835 31.5353 84.9477 31.7607H85.0383V27.1364H87.2297V39.5H85.0805V38.0391H84.9477C84.835 38.2644 84.672 38.5039 84.4587 38.7575C84.2454 39.007 83.9637 39.2203 83.6135 39.3974C83.2634 39.5745 82.8227 39.663 82.2915 39.663ZM82.9012 37.87C83.364 37.87 83.7584 37.7453 84.0844 37.4957C84.4104 37.2422 84.6579 36.89 84.827 36.4393C84.996 35.9885 85.0805 35.4633 85.0805 34.8636C85.0805 34.264 84.996 33.7428 84.827 33.3001C84.662 32.8574 84.4165 32.5133 84.0905 32.2678C83.7685 32.0223 83.3721 31.8995 82.9012 31.8995C82.4142 31.8995 82.0077 32.0263 81.6817 32.2798C81.3557 32.5334 81.1102 32.8835 80.9452 33.3303C80.7802 33.777 80.6977 34.2881 80.6977 34.8636C80.6977 35.4432 80.7802 35.9603 80.9452 36.4151C81.1143 36.8659 81.3618 37.2221 81.6878 37.4837C82.0178 37.7412 82.4223 37.87 82.9012 37.87ZM93.8718 39.5V27.1364H101.913V29.0138H96.1115V32.3704H101.496V34.2479H96.1115V37.6225H101.961V39.5H93.8718ZM104.101 39.5V30.2273H106.19V31.8029H106.299C106.492 31.2717 106.812 30.8571 107.259 30.5593C107.705 30.2575 108.239 30.1065 108.858 30.1065C109.486 30.1065 110.016 30.2595 110.446 30.5653C110.881 30.8672 111.187 31.2797 111.364 31.8029H111.46C111.666 31.2878 112.012 30.8772 112.499 30.5714C112.99 30.2615 113.571 30.1065 114.243 30.1065C115.097 30.1065 115.793 30.3762 116.332 30.9155C116.872 31.4548 117.141 32.2416 117.141 33.2759V39.5H114.95V33.614C114.95 33.0385 114.797 32.6179 114.491 32.3523C114.185 32.0826 113.811 31.9478 113.368 31.9478C112.841 31.9478 112.428 32.1128 112.131 32.4428C111.837 32.7688 111.69 33.1934 111.69 33.7166V39.5H109.547V33.5234C109.547 33.0445 109.402 32.6622 109.112 32.3764C108.826 32.0907 108.452 31.9478 107.989 31.9478C107.675 31.9478 107.39 32.0283 107.132 32.1893C106.874 32.3462 106.669 32.5696 106.516 32.8594C106.363 33.1451 106.287 33.4792 106.287 33.8615V39.5H104.101ZM119.358 42.9773V30.2273H121.507V31.7607H121.634C121.747 31.5353 121.906 31.2958 122.111 31.0423C122.316 30.7847 122.594 30.5653 122.944 30.3842C123.294 30.1991 123.741 30.1065 124.284 30.1065C125.001 30.1065 125.647 30.2897 126.222 30.6559C126.802 31.0181 127.261 31.5554 127.599 32.2678C127.941 32.9761 128.112 33.8454 128.112 34.8757C128.112 35.8939 127.945 36.7592 127.611 37.4716C127.277 38.1839 126.822 38.7273 126.246 39.1016C125.671 39.4759 125.019 39.663 124.29 39.663C123.759 39.663 123.318 39.5745 122.968 39.3974C122.618 39.2203 122.336 39.007 122.123 38.7575C121.914 38.5039 121.751 38.2644 121.634 38.0391H121.544V42.9773H119.358ZM121.501 34.8636C121.501 35.4633 121.586 35.9885 121.755 36.4393C121.928 36.89 122.175 37.2422 122.497 37.4957C122.823 37.7453 123.218 37.87 123.681 37.87C124.164 37.87 124.568 37.7412 124.894 37.4837C125.22 37.2221 125.466 36.8659 125.631 36.4151C125.8 35.9603 125.884 35.4432 125.884 34.8636C125.884 34.2881 125.802 33.777 125.637 33.3303C125.472 32.8835 125.226 32.5334 124.9 32.2798C124.574 32.0263 124.168 31.8995 123.681 31.8995C123.214 31.8995 122.817 32.0223 122.491 32.2678C122.165 32.5133 121.918 32.8574 121.749 33.3001C121.584 33.7428 121.501 34.264 121.501 34.8636ZM132.169 27.1364V39.5H129.983V27.1364H132.169ZM138.461 39.6811C137.555 39.6811 136.77 39.4819 136.106 39.0835C135.442 38.685 134.927 38.1276 134.561 37.4112C134.199 36.6948 134.017 35.8577 134.017 34.8999C134.017 33.942 134.199 33.1029 134.561 32.3825C134.927 31.662 135.442 31.1026 136.106 30.7042C136.77 30.3058 137.555 30.1065 138.461 30.1065C139.366 30.1065 140.151 30.3058 140.815 30.7042C141.479 31.1026 141.992 31.662 142.354 32.3825C142.721 33.1029 142.904 33.942 142.904 34.8999C142.904 35.8577 142.721 36.6948 142.354 37.4112C141.992 38.1276 141.479 38.685 140.815 39.0835C140.151 39.4819 139.366 39.6811 138.461 39.6811ZM138.473 37.9304C138.964 37.9304 139.374 37.7956 139.704 37.5259C140.034 37.2522 140.28 36.886 140.441 36.4272C140.606 35.9684 140.688 35.4573 140.688 34.8938C140.688 34.3263 140.606 33.8132 140.441 33.3544C140.28 32.8916 140.034 32.5233 139.704 32.2496C139.374 31.976 138.964 31.8391 138.473 31.8391C137.97 31.8391 137.551 31.976 137.217 32.2496C136.887 32.5233 136.639 32.8916 136.474 33.3544C136.313 33.8132 136.233 34.3263 136.233 34.8938C136.233 35.4573 136.313 35.9684 136.474 36.4272C136.639 36.886 136.887 37.2522 137.217 37.5259C137.551 37.7956 137.97 37.9304 138.473 37.9304ZM145.801 42.9773C145.504 42.9773 145.228 42.9531 144.974 42.9048C144.725 42.8606 144.526 42.8082 144.377 42.7479L144.884 41.0455C145.202 41.138 145.486 41.1823 145.735 41.1783C145.985 41.1742 146.204 41.0958 146.393 40.9428C146.586 40.7939 146.749 40.5444 146.882 40.1942L147.069 39.6932L143.707 30.2273H146.025L148.162 37.2301H148.259L150.402 30.2273H152.726L149.013 40.6229C148.84 41.1139 148.611 41.5344 148.325 41.8846C148.039 42.2388 147.689 42.5084 147.275 42.6935C146.864 42.8827 146.373 42.9773 145.801 42.9773ZM158.028 39.6811C157.098 39.6811 156.295 39.4879 155.619 39.1016C154.947 38.7112 154.43 38.1598 154.068 37.4474C153.705 36.7311 153.524 35.8879 153.524 34.918C153.524 33.9641 153.705 33.127 154.068 32.4066C154.434 31.6822 154.945 31.1187 155.601 30.7163C156.257 30.3098 157.028 30.1065 157.913 30.1065C158.485 30.1065 159.024 30.1991 159.531 30.3842C160.042 30.5653 160.493 30.8471 160.883 31.2294C161.278 31.6117 161.588 32.0987 161.813 32.6903C162.038 33.2779 162.151 33.9782 162.151 34.7912V35.4613H154.551V33.9883H160.056C160.052 33.5697 159.962 33.1974 159.785 32.8714C159.607 32.5414 159.36 32.2818 159.042 32.0927C158.728 31.9035 158.362 31.8089 157.943 31.8089C157.497 31.8089 157.104 31.9176 156.766 32.1349C156.428 32.3482 156.164 32.63 155.975 32.9801C155.79 33.3262 155.696 33.7066 155.691 34.1211V35.407C155.691 35.9463 155.79 36.4091 155.987 36.7955C156.185 37.1778 156.46 37.4716 156.814 37.6768C157.169 37.8781 157.583 37.9787 158.058 37.9787C158.376 37.9787 158.664 37.9344 158.921 37.8459C159.179 37.7533 159.402 37.6185 159.591 37.4414C159.781 37.2643 159.923 37.045 160.02 36.7834L162.06 37.0128C161.932 37.5521 161.686 38.023 161.324 38.4254C160.966 38.8239 160.507 39.1338 159.948 39.3551C159.388 39.5724 158.748 39.6811 158.028 39.6811ZM168.105 39.6811C167.175 39.6811 166.372 39.4879 165.696 39.1016C165.024 38.7112 164.507 38.1598 164.145 37.4474C163.782 36.7311 163.601 35.8879 163.601 34.918C163.601 33.9641 163.782 33.127 164.145 32.4066C164.511 31.6822 165.022 31.1187 165.678 30.7163C166.334 30.3098 167.105 30.1065 167.99 30.1065C168.562 30.1065 169.101 30.1991 169.608 30.3842C170.119 30.5653 170.57 30.8471 170.96 31.2294C171.355 31.6117 171.665 32.0987 171.89 32.6903C172.115 33.2779 172.228 33.9782 172.228 34.7912V35.4613H164.628V33.9883H170.133C170.129 33.5697 170.039 33.1974 169.862 32.8714C169.685 32.5414 169.437 32.2818 169.119 32.0927C168.805 31.9035 168.439 31.8089 168.02 31.8089C167.574 31.8089 167.181 31.9176 166.843 32.1349C166.505 32.3482 166.242 32.63 166.052 32.9801C165.867 33.3262 165.773 33.7066 165.769 34.1211V35.407C165.769 35.9463 165.867 36.4091 166.064 36.7955C166.262 37.1778 166.537 37.4716 166.892 37.6768C167.246 37.8781 167.66 37.9787 168.135 37.9787C168.453 37.9787 168.741 37.9344 168.998 37.8459C169.256 37.7533 169.479 37.6185 169.669 37.4414C169.858 37.2643 170.001 37.045 170.097 36.7834L172.138 37.0128C172.009 37.5521 171.763 38.023 171.401 38.4254C171.043 38.8239 170.584 39.1338 170.025 39.3551C169.465 39.5724 168.825 39.6811 168.105 39.6811Z" fill="white"/>
</g>
<defs>
<filter id="filter0_d_3_43069" x="0" y="0" width="204" height="70" filterUnits="userSpaceOnUse" color-interpolation-filters="sRGB">
<feFlood flood-opacity="0" result="BackgroundImageFix"/>
<feColorMatrix in="SourceAlpha" type="matrix" values="0 0 0 0 0 0 0 0 0 0 0 0 0 0 0 0 0 0 127 0" result="hardAlpha"/>
<feOffset dy="2"/>
<feGaussianBlur stdDeviation="3.5"/>
<feComposite in2="hardAlpha" operator="out"/>
<feColorMatrix type="matrix" values="0 0 0 0 0 0 0 0 0 0 0 0 0 0 0 0 0 0 0.08 0"/>
<feBlend mode="normal" in2="BackgroundImageFix" result="effect1_dropShadow_3_43069"/>
<feBlend mode="normal" in="SourceGraphic" in2="effect1_dropShadow_3_43069" result="shape"/>
</filter>
</defs>
</svg>
