<svg width="207" height="281" viewBox="0 0 207 281" fill="none" xmlns="http://www.w3.org/2000/svg">
<path d="M4.68317 0.0246765C3.72059 -0.13635 2.80973 0.513437 2.6487 1.47601L0.0246283 17.1621C-0.136397 18.1247 0.513389 19.0356 1.47597 19.1966C2.43854 19.3576 3.34941 18.7078 3.51043 17.7453L5.84294 3.80204L19.7862 6.13455C20.7487 6.29558 21.6596 5.64579 21.8206 4.68321C21.9816 3.72064 21.3319 2.80977 20.3693 2.64875L4.68317 0.0246765ZM202.018 280.948C202.98 281.109 203.891 280.46 204.052 279.497L206.676 263.811C206.837 262.848 206.187 261.938 205.225 261.777C204.262 261.615 203.351 262.265 203.19 263.228L200.858 277.171L186.915 274.839C185.952 274.678 185.041 275.327 184.88 276.29C184.719 277.252 185.369 278.163 186.331 278.324L202.018 280.948ZM4.3916 1.76758L2.95302 2.79383L200.871 280.232L202.309 279.206L203.748 278.179L5.83019 0.741327L4.3916 1.76758Z" fill="black"/>
</svg>
