<svg width="20" height="20" viewBox="0 0 20 20" fill="none" xmlns="http://www.w3.org/2000/svg">
<g clip-path="url(#clip0_929_19838)">
<path d="M7 5.75C7 6.164 7.336 6.5 7.75 6.5H17.25C17.4489 6.5 17.6397 6.42098 17.7803 6.28033C17.921 6.13968 18 5.94891 18 5.75C18 5.55109 17.921 5.36032 17.7803 5.21967C17.6397 5.07902 17.4489 5 17.25 5H7.75C7.55109 5 7.36032 5.07902 7.21967 5.21967C7.07902 5.36032 7 5.55109 7 5.75ZM1 5.75C1 4.784 1.777 4 2.75 4C3.716 4 4.5 4.777 4.5 5.75C4.5 6.716 3.723 7.5 2.75 7.5C1.784 7.5 1 6.723 1 5.75ZM7 14.75C7 15.164 7.336 15.5 7.75 15.5H17.25C17.4489 15.5 17.6397 15.421 17.7803 15.2803C17.921 15.1397 18 14.9489 18 14.75C18 14.5511 17.921 14.3603 17.7803 14.2197C17.6397 14.079 17.4489 14 17.25 14H7.75C7.55109 14 7.36032 14.079 7.21967 14.2197C7.07902 14.3603 7 14.5511 7 14.75ZM1 14.75C1 13.784 1.777 13 2.75 13C3.716 13 4.5 13.777 4.5 14.75C4.5 15.716 3.723 16.5 2.75 16.5C1.784 16.5 1 15.723 1 14.75Z" fill="#333333"/>
</g>
<defs>
<clipPath id="clip0_929_19838">
<rect width="20" height="20" fill="white"/>
</clipPath>
</defs>
</svg>
