<svg width="13" height="15" viewBox="0 0 13 15" fill="none" xmlns="http://www.w3.org/2000/svg">
<path d="M8.14583 11.3333C7.65 11.3333 7.2309 11.1622 6.88854 10.8198C6.54618 10.4774 6.375 10.0583 6.375 9.5625C6.375 9.06667 6.54618 8.64757 6.88854 8.30521C7.2309 7.96285 7.65 7.79167 8.14583 7.79167C8.64167 7.79167 9.06076 7.96285 9.40312 8.30521C9.74549 8.64757 9.91667 9.06667 9.91667 9.5625C9.91667 10.0583 9.74549 10.4774 9.40312 10.8198C9.06076 11.1622 8.64167 11.3333 8.14583 11.3333ZM1.41667 14.1667C1.02708 14.1667 0.693576 14.028 0.416146 13.7505C0.138715 13.4731 0 13.1396 0 12.75V2.83333C0 2.44375 0.138715 2.11024 0.416146 1.83281C0.693576 1.55538 1.02708 1.41667 1.41667 1.41667H2.125V0.708333C2.125 0.507639 2.19288 0.33941 2.32865 0.203646C2.46441 0.0678819 2.63264 0 2.83333 0C3.03403 0 3.20226 0.0678819 3.33802 0.203646C3.47378 0.33941 3.54167 0.507639 3.54167 0.708333V1.41667H9.20833V0.708333C9.20833 0.507639 9.27622 0.33941 9.41198 0.203646C9.54774 0.0678819 9.71597 0 9.91667 0C10.1174 0 10.2856 0.0678819 10.4214 0.203646C10.5571 0.33941 10.625 0.507639 10.625 0.708333V1.41667H11.3333C11.7229 1.41667 12.0564 1.55538 12.3339 1.83281C12.6113 2.11024 12.75 2.44375 12.75 2.83333V12.75C12.75 13.1396 12.6113 13.4731 12.3339 13.7505C12.0564 14.028 11.7229 14.1667 11.3333 14.1667H1.41667ZM1.41667 12.75H11.3333V5.66667H1.41667V12.75ZM1.41667 4.25H11.3333V2.83333H1.41667V4.25Z" fill="#0866FF"/>
</svg>
