<svg width="34" height="34" viewBox="0 0 34 34" fill="none" xmlns="http://www.w3.org/2000/svg">
<rect x="0.425" y="0.425" width="33.15" height="33.15" rx="16.575" fill="white"/>
<rect x="0.425" y="0.425" width="33.15" height="33.15" rx="16.575" stroke="#E9EAF0" stroke-width="0.85"/>
<g clip-path="url(#clip0_827_29804)">
<path d="M16.8015 9.66708C12.5765 9.66708 9.15146 13.0921 9.15146 17.3171C9.15146 18.6897 9.51283 19.9764 10.1445 21.0896C10.1804 21.1526 10.2033 21.222 10.2121 21.294C10.2208 21.3659 10.2152 21.4388 10.1955 21.5085L9.23525 24.8847L12.6114 23.9245C12.6813 23.9047 12.7544 23.899 12.8264 23.9078C12.8985 23.9165 12.968 23.9395 13.0311 23.9755C14.1805 24.6276 15.4799 24.9694 16.8015 24.9671C21.0264 24.9671 24.4515 21.5421 24.4515 17.3171C24.4515 13.0921 21.0264 9.66708 16.8015 9.66708ZM8.0586 17.3171C8.0586 12.4888 11.9732 8.57422 16.8015 8.57422C21.6297 8.57422 25.5443 12.4888 25.5443 17.3171C25.5443 22.1453 21.6297 26.0599 16.8015 26.0599C15.3692 26.062 13.9585 25.7106 12.6945 25.037L9.21922 26.0257C9.06321 26.07 8.8982 26.0719 8.74124 26.0311C8.58428 25.9903 8.44106 25.9083 8.32638 25.7936C8.21171 25.6789 8.12973 25.5357 8.08893 25.3788C8.04813 25.2218 8.04999 25.0568 8.0943 24.9008L9.08225 21.4255C8.40816 20.1611 8.05655 18.7499 8.0586 17.3171Z" fill="black"/>
</g>
<defs>
<clipPath id="clip0_827_29804">
<rect width="20.4" height="20.4" fill="white" transform="translate(6.80078 6.80078)"/>
</clipPath>
</defs>
</svg>
