<svg width="16" height="16" viewBox="0 0 16 16" fill="none" xmlns="http://www.w3.org/2000/svg">
<g clip-path="url(#clip0_996_54574)">
<path d="M7.99973 2.24777C4.68601 2.24777 1.99973 4.93405 1.99973 8.24777C1.99973 9.32434 2.28316 10.3335 2.77858 11.2066C2.8067 11.256 2.82472 11.3105 2.83159 11.3669C2.83845 11.4233 2.83403 11.4805 2.81858 11.5352L2.06544 14.1832L4.71344 13.4301C4.76821 13.4145 4.82553 13.4101 4.88204 13.4169C4.93855 13.4238 4.99313 13.4419 5.04258 13.4701C5.9441 13.9815 6.96322 14.2496 7.99973 14.2478C11.3134 14.2478 13.9997 11.5615 13.9997 8.24777C13.9997 4.93405 11.3134 2.24777 7.99973 2.24777ZM1.14259 8.24777C1.14259 4.46091 4.21287 1.39062 7.99973 1.39062C11.7866 1.39062 14.8569 4.46091 14.8569 8.24777C14.8569 12.0346 11.7866 15.1049 7.99973 15.1049C6.87637 15.1065 5.76996 14.8309 4.77858 14.3026L2.05287 15.0781C1.93051 15.1128 1.80109 15.1143 1.67799 15.0823C1.55488 15.0503 1.44255 14.986 1.35261 14.896C1.26267 14.8061 1.19837 14.6938 1.16637 14.5707C1.13437 14.4475 1.13583 14.3181 1.17059 14.1958L1.94544 11.4701C1.41675 10.4784 1.14098 9.37156 1.14259 8.24777Z" fill="black"/>
</g>
<defs>
<clipPath id="clip0_996_54574">
<rect width="16" height="16" fill="white"/>
</clipPath>
</defs>
</svg>
