<svg width="20" height="20" viewBox="0 0 20 20" fill="none" xmlns="http://www.w3.org/2000/svg">
<path d="M12.0833 14.7904C11.5 14.7904 11.0069 14.589 10.6042 14.1862C10.2014 13.7834 10 13.2904 10 12.707C10 12.1237 10.2014 11.6306 10.6042 11.2279C11.0069 10.8251 11.5 10.6237 12.0833 10.6237C12.6667 10.6237 13.1597 10.8251 13.5625 11.2279C13.9653 11.6306 14.1667 12.1237 14.1667 12.707C14.1667 13.2904 13.9653 13.7834 13.5625 14.1862C13.1597 14.589 12.6667 14.7904 12.0833 14.7904ZM4.16667 18.1237C3.70833 18.1237 3.31597 17.9605 2.98958 17.6341C2.66319 17.3077 2.5 16.9154 2.5 16.457V4.79036C2.5 4.33203 2.66319 3.93967 2.98958 3.61328C3.31597 3.28689 3.70833 3.1237 4.16667 3.1237H5V2.29036C5 2.05425 5.07986 1.85634 5.23958 1.69661C5.39931 1.53689 5.59722 1.45703 5.83333 1.45703C6.06944 1.45703 6.26736 1.53689 6.42708 1.69661C6.58681 1.85634 6.66667 2.05425 6.66667 2.29036V3.1237H13.3333V2.29036C13.3333 2.05425 13.4132 1.85634 13.5729 1.69661C13.7326 1.53689 13.9306 1.45703 14.1667 1.45703C14.4028 1.45703 14.6007 1.53689 14.7604 1.69661C14.9201 1.85634 15 2.05425 15 2.29036V3.1237H15.8333C16.2917 3.1237 16.684 3.28689 17.0104 3.61328C17.3368 3.93967 17.5 4.33203 17.5 4.79036V16.457C17.5 16.9154 17.3368 17.3077 17.0104 17.6341C16.684 17.9605 16.2917 18.1237 15.8333 18.1237H4.16667ZM4.16667 16.457H15.8333V8.1237H4.16667V16.457ZM4.16667 6.45703H15.8333V4.79036H4.16667V6.45703Z" fill="#050505"/>
</svg>
