<svg width="17" height="17" viewBox="0 0 17 17" fill="none" xmlns="http://www.w3.org/2000/svg">
<path d="M10.2708 12.5716C9.775 12.5716 9.3559 12.4004 9.01354 12.0581C8.67118 11.7157 8.5 11.2966 8.5 10.8008C8.5 10.3049 8.67118 9.88585 9.01354 9.54349C9.3559 9.20113 9.775 9.02995 10.2708 9.02995C10.7667 9.02995 11.1858 9.20113 11.5281 9.54349C11.8705 9.88585 12.0417 10.3049 12.0417 10.8008C12.0417 11.2966 11.8705 11.7157 11.5281 12.0581C11.1858 12.4004 10.7667 12.5716 10.2708 12.5716ZM3.54167 15.4049C3.15208 15.4049 2.81858 15.2662 2.54115 14.9888C2.26372 14.7114 2.125 14.3779 2.125 13.9883V4.07161C2.125 3.68203 2.26372 3.34852 2.54115 3.07109C2.81858 2.79366 3.15208 2.65495 3.54167 2.65495H4.25V1.94661C4.25 1.74592 4.31788 1.57769 4.45365 1.44193C4.58941 1.30616 4.75764 1.23828 4.95833 1.23828C5.15903 1.23828 5.32726 1.30616 5.46302 1.44193C5.59878 1.57769 5.66667 1.74592 5.66667 1.94661V2.65495H11.3333V1.94661C11.3333 1.74592 11.4012 1.57769 11.537 1.44193C11.6727 1.30616 11.841 1.23828 12.0417 1.23828C12.2424 1.23828 12.4106 1.30616 12.5464 1.44193C12.6821 1.57769 12.75 1.74592 12.75 1.94661V2.65495H13.4583C13.8479 2.65495 14.1814 2.79366 14.4589 3.07109C14.7363 3.34852 14.875 3.68203 14.875 4.07161V13.9883C14.875 14.3779 14.7363 14.7114 14.4589 14.9888C14.1814 15.2662 13.8479 15.4049 13.4583 15.4049H3.54167ZM3.54167 13.9883H13.4583V6.90495H3.54167V13.9883ZM3.54167 5.48828H13.4583V4.07161H3.54167V5.48828Z" fill="#0866FF"/>
</svg>
