<svg width="10" height="20" viewBox="0 0 10 20" fill="none" xmlns="http://www.w3.org/2000/svg">
<g clip-path="url(#clip0_996_52497)">
<path d="M0.941833 9.52332C0.868146 9.45466 0.809044 9.37186 0.768052 9.27986C0.72706 9.18786 0.705019 9.08854 0.703242 8.98784C0.701465 8.88714 0.71999 8.78711 0.757711 8.69372C0.795432 8.60033 0.851576 8.5155 0.922795 8.44428C0.994014 8.37306 1.07885 8.31692 1.17224 8.27919C1.26562 8.24147 1.36565 8.22295 1.46636 8.22473C1.56706 8.2265 1.66637 8.24854 1.75837 8.28954C1.85037 8.33053 1.93317 8.38963 2.00183 8.46332L5.00783 11.4683L8.01283 8.46332C8.0815 8.38963 8.1643 8.33053 8.2563 8.28954C8.34829 8.24854 8.44761 8.2265 8.54831 8.22473C8.64901 8.22295 8.74904 8.24147 8.84243 8.27919C8.93582 8.31692 9.02065 8.37306 9.09187 8.44428C9.16309 8.5155 9.21924 8.60033 9.25696 8.69372C9.29468 8.78711 9.3132 8.88714 9.31143 8.98784C9.30965 9.08854 9.28761 9.18786 9.24661 9.27986C9.20562 9.37186 9.14652 9.45466 9.07283 9.52332L5.52383 13.0733C5.44383 13.1533 5.34679 13.2141 5.23996 13.2512C5.13313 13.2884 5.01929 13.3009 4.90695 13.2878C4.7946 13.2747 4.68668 13.2364 4.59124 13.1757C4.4958 13.115 4.41533 13.0335 4.35583 12.9373L0.941833 9.52332Z" fill="#333333"/>
</g>
<defs>
<clipPath id="clip0_996_52497">
<rect width="10" height="20" fill="white"/>
</clipPath>
</defs>
</svg>
