<svg width="119" height="65" viewBox="0 0 119 65" fill="none" xmlns="http://www.w3.org/2000/svg">
<rect width="118.274" height="64.2739" fill="white"/>
<path d="M15.5072 39.1367V37.1186L20.8613 31.8699C21.3734 31.3529 21.8001 30.8935 22.1415 30.4919C22.4829 30.0903 22.7389 29.7012 22.9096 29.3247C23.0803 28.9482 23.1656 28.5465 23.1656 28.1198C23.1656 27.6329 23.0552 27.2162 22.8343 26.8698C22.6134 26.5184 22.3097 26.2473 21.9231 26.0565C21.5365 25.8657 21.0973 25.7704 20.6053 25.7704C20.0982 25.7704 19.654 25.8758 19.2724 26.0866C18.8909 26.2925 18.5947 26.5861 18.3838 26.9677C18.178 27.3492 18.0751 27.8036 18.0751 28.3307H15.4169C15.4169 27.3517 15.6403 26.5008 16.0871 25.7779C16.5339 25.055 17.1489 24.4952 17.932 24.0986C18.7202 23.702 19.6238 23.5037 20.6429 23.5037C21.6771 23.5037 22.5858 23.697 23.3689 24.0836C24.1521 24.4701 24.7595 24.9998 25.1913 25.6725C25.628 26.3452 25.8464 27.1133 25.8464 27.9767C25.8464 28.5541 25.736 29.1214 25.5151 29.6786C25.2942 30.2359 24.9051 30.8533 24.3479 31.5311C23.7956 32.2088 23.02 33.0296 22.021 33.9935L19.3628 36.6969V36.8023H26.0798V39.1367H15.5072ZM34.3783 39.4304C33.1383 39.4304 32.074 39.1166 31.1854 38.4891C30.3019 37.8566 29.6216 36.9454 29.1447 35.7556C28.6728 34.5608 28.4368 33.1225 28.4368 31.4407C28.4419 29.7589 28.6803 28.3282 29.1522 27.1484C29.6291 25.9636 30.3094 25.06 31.1929 24.4375C32.0815 23.815 33.1433 23.5037 34.3783 23.5037C35.6133 23.5037 36.675 23.815 37.5636 24.4375C38.4522 25.06 39.1324 25.9636 39.6043 27.1484C40.0813 28.3332 40.3197 29.7639 40.3197 31.4407C40.3197 33.1275 40.0813 34.5683 39.6043 35.7631C39.1324 36.9529 38.4522 37.8616 37.5636 38.4891C36.6801 39.1166 35.6183 39.4304 34.3783 39.4304ZM34.3783 37.0734C35.3422 37.0734 36.1027 36.599 36.66 35.6502C37.2222 34.6963 37.5034 33.2932 37.5034 31.4407C37.5034 30.2158 37.3754 29.1866 37.1193 28.3533C36.8633 27.5199 36.5018 26.8924 36.035 26.4707C35.5681 26.044 35.0159 25.8306 34.3783 25.8306C33.4194 25.8306 32.6614 26.3075 32.1041 27.2614C31.5469 28.2102 31.2657 29.6033 31.2607 31.4407C31.2557 32.6707 31.3787 33.7048 31.6297 34.5432C31.8857 35.3816 32.2472 36.0141 32.7141 36.4409C33.181 36.8626 33.7357 37.0734 34.3783 37.0734ZM48.5222 39.4304C47.2822 39.4304 46.2179 39.1166 45.3293 38.4891C44.4457 37.8566 43.7655 36.9454 43.2886 35.7556C42.8167 34.5608 42.5807 33.1225 42.5807 31.4407C42.5857 29.7589 42.8242 28.3282 43.2961 27.1484C43.773 25.9636 44.4533 25.06 45.3368 24.4375C46.2254 23.815 47.2872 23.5037 48.5222 23.5037C49.7571 23.5037 50.8189 23.815 51.7075 24.4375C52.5961 25.06 53.2763 25.9636 53.7482 27.1484C54.2251 28.3332 54.4636 29.7639 54.4636 31.4407C54.4636 33.1275 54.2251 34.5683 53.7482 35.7631C53.2763 36.9529 52.5961 37.8616 51.7075 38.4891C50.8239 39.1166 49.7622 39.4304 48.5222 39.4304ZM48.5222 37.0734C49.486 37.0734 50.2466 36.599 50.8038 35.6502C51.3661 34.6963 51.6472 33.2932 51.6472 31.4407C51.6472 30.2158 51.5192 29.1866 51.2632 28.3533C51.0072 27.5199 50.6457 26.8924 50.1788 26.4707C49.7119 26.044 49.1597 25.8306 48.5222 25.8306C47.5633 25.8306 46.8052 26.3075 46.248 27.2614C45.6907 28.2102 45.4096 29.6033 45.4046 31.4407C45.3996 32.6707 45.5226 33.7048 45.7736 34.5432C46.0296 35.3816 46.3911 36.0141 46.8579 36.4409C47.3248 36.8626 47.8796 37.0734 48.5222 37.0734ZM62.2556 39.1367V27.5701H64.8611V29.5355H64.9967C65.2376 28.8729 65.6367 28.3558 66.194 27.9843C66.7512 27.6078 67.4164 27.4195 68.1895 27.4195C68.9727 27.4195 69.6328 27.6103 70.17 27.9918C70.7122 28.3683 71.0937 28.8829 71.3146 29.5355H71.4351C71.6911 28.8929 72.1229 28.3809 72.7303 27.9993C73.3428 27.6128 74.0682 27.4195 74.9066 27.4195C75.9709 27.4195 76.8394 27.7559 77.5121 28.4286C78.1848 29.1013 78.5212 30.0827 78.5212 31.3729V39.1367H75.7877V31.7946C75.7877 31.0767 75.5969 30.5521 75.2153 30.2208C74.8338 29.8844 74.3669 29.7163 73.8147 29.7163C73.157 29.7163 72.6425 29.9221 72.271 30.3337C71.9045 30.7404 71.7213 31.27 71.7213 31.9226V39.1367H69.048V31.6817C69.048 31.0843 68.8673 30.6073 68.5058 30.2509C68.1494 29.8945 67.6825 29.7163 67.1052 29.7163C66.7136 29.7163 66.3571 29.8167 66.0359 30.0175C65.7146 30.2133 65.4585 30.4919 65.2678 30.8533C65.077 31.2098 64.9816 31.6265 64.9816 32.1034V39.1367H62.2556ZM81.2867 39.1367V27.5701H84.0127V39.1367H81.2867ZM82.6572 25.9285C82.2255 25.9285 81.854 25.7854 81.5427 25.4993C81.2315 25.2081 81.0758 24.8592 81.0758 24.4525C81.0758 24.0409 81.2315 23.692 81.5427 23.4058C81.854 23.1147 82.2255 22.9691 82.6572 22.9691C83.094 22.9691 83.4655 23.1147 83.7717 23.4058C84.083 23.692 84.2386 24.0409 84.2386 24.4525C84.2386 24.8592 84.083 25.2081 83.7717 25.4993C83.4655 25.7854 83.094 25.9285 82.6572 25.9285ZM89.5418 23.7146V39.1367H86.8158V23.7146H89.5418ZM97.4656 39.3626C96.306 39.3626 95.3044 39.1217 94.461 38.6397C93.6226 38.1528 92.9775 37.465 92.5257 36.5764C92.0739 35.6828 91.848 34.6311 91.848 33.4212C91.848 32.2314 92.0739 31.1872 92.5257 30.2886C92.9826 29.3849 93.6201 28.6821 94.4384 28.1801C95.2567 27.673 96.2181 27.4195 97.3226 27.4195C98.0354 27.4195 98.7081 27.535 99.3407 27.7659C99.9783 27.9918 100.541 28.3432 101.027 28.8201C101.519 29.2971 101.906 29.9045 102.187 30.6425C102.468 31.3754 102.609 32.249 102.609 33.263V34.0989H93.1282V32.2615H99.9958C99.9908 31.7394 99.8779 31.275 99.657 30.8684C99.4361 30.4567 99.1273 30.1329 98.7307 29.897C98.3391 29.661 97.8823 29.5431 97.3602 29.5431C96.803 29.5431 96.3135 29.6786 95.8918 29.9497C95.4701 30.2158 95.1413 30.5672 94.9053 31.0039C94.6744 31.4357 94.5564 31.9101 94.5514 32.4272V34.0311C94.5514 34.7039 94.6744 35.2812 94.9204 35.7631C95.1664 36.24 95.5103 36.6065 95.952 36.8626C96.3938 37.1136 96.9109 37.2391 97.5033 37.2391C97.8999 37.2391 98.2588 37.1838 98.5801 37.0734C98.9014 36.9579 99.18 36.7898 99.416 36.5689C99.6519 36.348 99.8302 36.0744 99.9506 35.7481L102.496 36.0342C102.335 36.7069 102.029 37.2943 101.577 37.7963C101.13 38.2933 100.558 38.6799 99.8603 38.956C99.1625 39.2271 98.3643 39.3626 97.4656 39.3626Z" fill="#0866FF"/>
</svg>
