<svg width="19" height="19" viewBox="0 0 19 19" fill="none" xmlns="http://www.w3.org/2000/svg">
<g clip-path="url(#clip0_827_22842)">
<path d="M6.98644 13.0735H10.7112C10.9485 13.0738 11.1768 13.1647 11.3494 13.3276C11.5219 13.4905 11.6258 13.7132 11.6397 13.9501C11.6536 14.1871 11.5765 14.4204 11.4242 14.6024C11.2719 14.7844 11.0558 14.9013 10.8201 14.9294L10.7112 14.9359H6.98644C6.7491 14.9356 6.52082 14.8447 6.34824 14.6818C6.17566 14.5189 6.0718 14.2962 6.0579 14.0593C6.04399 13.8223 6.12107 13.589 6.2734 13.407C6.42574 13.225 6.64182 13.1081 6.8775 13.08L6.98644 13.0735ZM5.12408 8.41762H12.5735C12.8109 8.41789 13.0391 8.50876 13.2117 8.67169C13.3843 8.83462 13.4882 9.0573 13.5021 9.29423C13.516 9.53116 13.4389 9.76446 13.2866 9.94646C13.1342 10.1285 12.9182 10.2454 12.6825 10.2735L12.5735 10.28H5.12408C4.88674 10.2797 4.65846 10.1888 4.48588 10.0259C4.3133 9.86298 4.20944 9.64031 4.19553 9.40337C4.18163 9.16644 4.25871 8.93314 4.41104 8.75114C4.56338 8.56914 4.77946 8.45217 5.01513 8.42414L5.12408 8.41762ZM2.33054 3.76172H15.3671C15.6044 3.76198 15.8327 3.85286 16.0053 4.01579C16.1779 4.17872 16.2817 4.4014 16.2956 4.63833C16.3095 4.87526 16.2324 5.10856 16.0801 5.29056C15.9278 5.47256 15.7117 5.58953 15.476 5.61756L15.3671 5.62408H2.33054C2.0932 5.62382 1.86492 5.53294 1.69234 5.37001C1.51976 5.20708 1.4159 4.9844 1.40199 4.74747C1.38808 4.51054 1.46517 4.27724 1.6175 4.09524C1.76983 3.91324 1.98591 3.79627 2.22159 3.76824L2.33054 3.76172Z" fill="#0866FF"/>
</g>
<defs>
<clipPath id="clip0_827_22842">
<rect width="16.8" height="16.8" fill="white" transform="translate(0.700195 0.960938)"/>
</clipPath>
</defs>
</svg>
