<svg width="16" height="16" viewBox="0 0 16 16" fill="none" xmlns="http://www.w3.org/2000/svg">
<path d="M4.92253 12.7523L7.99959 10.9005L11.0767 12.7766L10.2708 9.26796L12.9815 6.92885L9.41602 6.61209L7.99959 3.29835L6.58317 6.58773L3.01768 6.90448L5.72843 9.26796L4.92253 12.7523ZM7.99959 12.0476L4.45365 14.184C4.34945 14.2353 4.25274 14.2561 4.16352 14.2464C4.07496 14.236 3.98867 14.2054 3.90466 14.1547C3.82 14.1028 3.75618 14.0293 3.7132 13.9345C3.67022 13.8396 3.66631 13.736 3.70148 13.6236L4.64511 9.61785L1.52409 6.91813C1.43617 6.84665 1.37821 6.76121 1.35021 6.6618C1.32221 6.56239 1.32839 6.4672 1.36877 6.37623C1.40915 6.28527 1.46287 6.21055 1.52995 6.15207C1.59768 6.09554 1.68885 6.05721 1.80347 6.03706L5.92184 5.6784L7.52778 1.88514C7.57206 1.77793 7.63588 1.70061 7.71924 1.65318C7.8026 1.60575 7.89605 1.58203 7.99959 1.58203C8.10314 1.58203 8.19692 1.60575 8.28092 1.65318C8.36493 1.70061 8.42843 1.77793 8.47141 1.88514L10.0773 5.6784L14.1947 6.03706C14.31 6.05656 14.4015 6.09522 14.4692 6.15304C14.537 6.21022 14.591 6.28462 14.6314 6.37623C14.6711 6.4672 14.677 6.56239 14.649 6.6618C14.621 6.76121 14.563 6.84665 14.4751 6.91813L11.3541 9.61785L12.2977 13.6236C12.3342 13.7347 12.3306 13.838 12.287 13.9335C12.2433 14.029 12.1792 14.1024 12.0945 14.1538C12.0112 14.2058 11.9249 14.2366 11.8357 14.2464C11.7471 14.2561 11.6507 14.2353 11.5465 14.184L7.99959 12.0476Z" fill="#65676B"/>
</svg>
