<svg width="29" height="29" viewBox="0 0 29 29" fill="none" xmlns="http://www.w3.org/2000/svg">
<path d="M8.6025 13.2283C8.17846 13.2283 7.81546 13.0774 7.51349 12.7754C7.21153 12.4734 7.06055 12.1104 7.06055 11.6864V8.6025C7.06055 8.17846 7.21153 7.81546 7.51349 7.51349C7.81546 7.21153 8.17846 7.06055 8.6025 7.06055H11.6864C12.1104 7.06055 12.4734 7.21153 12.7754 7.51349C13.0774 7.81546 13.2283 8.17846 13.2283 8.6025V11.6864C13.2283 12.1104 13.0774 12.4734 12.7754 12.7754C12.4734 13.0774 12.1104 13.2283 11.6864 13.2283H8.6025ZM8.6025 20.9381C8.17846 20.9381 7.81546 20.7871 7.51349 20.4852C7.21153 20.1832 7.06055 19.8202 7.06055 19.3961V16.3122C7.06055 15.8882 7.21153 15.5252 7.51349 15.2232C7.81546 14.9213 8.17846 14.7703 8.6025 14.7703H11.6864C12.1104 14.7703 12.4734 14.9213 12.7754 15.2232C13.0774 15.5252 13.2283 15.8882 13.2283 16.3122V19.3961C13.2283 19.8202 13.0774 20.1832 12.7754 20.4852C12.4734 20.7871 12.1104 20.9381 11.6864 20.9381H8.6025ZM16.3122 13.2283C15.8882 13.2283 15.5252 13.0774 15.2232 12.7754C14.9213 12.4734 14.7703 12.1104 14.7703 11.6864V8.6025C14.7703 8.17846 14.9213 7.81546 15.2232 7.51349C15.5252 7.21153 15.8882 7.06055 16.3122 7.06055H19.3961C19.8202 7.06055 20.1832 7.21153 20.4852 7.51349C20.7871 7.81546 20.9381 8.17846 20.9381 8.6025V11.6864C20.9381 12.1104 20.7871 12.4734 20.4852 12.7754C20.1832 13.0774 19.8202 13.2283 19.3961 13.2283H16.3122ZM16.3122 20.9381C15.8882 20.9381 15.5252 20.7871 15.2232 20.4852C14.9213 20.1832 14.7703 19.8202 14.7703 19.3961V16.3122C14.7703 15.8882 14.9213 15.5252 15.2232 15.2232C15.5252 14.9213 15.8882 14.7703 16.3122 14.7703H19.3961C19.8202 14.7703 20.1832 14.9213 20.4852 15.2232C20.7871 15.5252 20.9381 15.8882 20.9381 16.3122V19.3961C20.9381 19.8202 20.7871 20.1832 20.4852 20.4852C20.1832 20.7871 19.8202 20.9381 19.3961 20.9381H16.3122ZM8.6025 11.6864H11.6864V8.6025H8.6025V11.6864ZM16.3122 11.6864H19.3961V8.6025H16.3122V11.6864ZM16.3122 19.3961H19.3961V16.3122H16.3122V19.3961ZM8.6025 19.3961H11.6864V16.3122H8.6025V19.3961Z" fill="#65676B"/>
</svg>
