<svg width="14" height="14" viewBox="0 0 14 14" fill="none" xmlns="http://www.w3.org/2000/svg">
<path d="M1.54195 6.1678C1.11791 6.1678 0.754913 6.01682 0.452948 5.71485C0.150983 5.41289 0 5.04989 0 4.62585V1.54195C0 1.11791 0.150983 0.754913 0.452948 0.452948C0.754913 0.150983 1.11791 0 1.54195 0H4.62585C5.04989 0 5.41289 0.150983 5.71485 0.452948C6.01682 0.754913 6.1678 1.11791 6.1678 1.54195V4.62585C6.1678 5.04989 6.01682 5.41289 5.71485 5.71485C5.41289 6.01682 5.04989 6.1678 4.62585 6.1678H1.54195ZM1.54195 13.8776C1.11791 13.8776 0.754913 13.7266 0.452948 13.4246C0.150983 13.1226 0 12.7596 0 12.3356V9.2517C0 8.82767 0.150983 8.46466 0.452948 8.1627C0.754913 7.86073 1.11791 7.70975 1.54195 7.70975H4.62585C5.04989 7.70975 5.41289 7.86073 5.71485 8.1627C6.01682 8.46466 6.1678 8.82767 6.1678 9.2517V12.3356C6.1678 12.7596 6.01682 13.1226 5.71485 13.4246C5.41289 13.7266 5.04989 13.8776 4.62585 13.8776H1.54195ZM9.2517 6.1678C8.82767 6.1678 8.46466 6.01682 8.1627 5.71485C7.86073 5.41289 7.70975 5.04989 7.70975 4.62585V1.54195C7.70975 1.11791 7.86073 0.754913 8.1627 0.452948C8.46466 0.150983 8.82767 0 9.2517 0H12.3356C12.7596 0 13.1226 0.150983 13.4246 0.452948C13.7266 0.754913 13.8776 1.11791 13.8776 1.54195V4.62585C13.8776 5.04989 13.7266 5.41289 13.4246 5.71485C13.1226 6.01682 12.7596 6.1678 12.3356 6.1678H9.2517ZM9.2517 13.8776C8.82767 13.8776 8.46466 13.7266 8.1627 13.4246C7.86073 13.1226 7.70975 12.7596 7.70975 12.3356V9.2517C7.70975 8.82767 7.86073 8.46466 8.1627 8.1627C8.46466 7.86073 8.82767 7.70975 9.2517 7.70975H12.3356C12.7596 7.70975 13.1226 7.86073 13.4246 8.1627C13.7266 8.46466 13.8776 8.82767 13.8776 9.2517V12.3356C13.8776 12.7596 13.7266 13.1226 13.4246 13.4246C13.1226 13.7266 12.7596 13.8776 12.3356 13.8776H9.2517ZM1.54195 4.62585H4.62585V1.54195H1.54195V4.62585ZM9.2517 4.62585H12.3356V1.54195H9.2517V4.62585ZM9.2517 12.3356H12.3356V9.2517H9.2517V12.3356ZM1.54195 12.3356H4.62585V9.2517H1.54195V12.3356Z" fill="#0866FF"/>
</svg>
