<svg width="39" height="20" viewBox="0 0 39 20" fill="none" xmlns="http://www.w3.org/2000/svg">
<g clip-path="url(#clip0_929_19828)">
<path d="M18.5851 14.633L18.6061 14.637C18.5701 14.972 18.7011 15.292 18.9991 15.599C19.0811 15.682 19.1721 15.749 19.2731 15.8H20.7471C20.9063 15.8 21.0589 15.8632 21.1714 15.9757C21.2839 16.0883 21.3471 16.2409 21.3471 16.4C21.3471 16.5591 21.2839 16.7117 21.1714 16.8243C21.0589 16.9368 20.9063 17 20.7471 17H14.3031C14.144 17 13.9914 16.9368 13.8789 16.8243C13.7663 16.7117 13.7031 16.5591 13.7031 16.4C13.7031 16.2409 13.7663 16.0883 13.8789 15.9757C13.9914 15.8632 14.144 15.8 14.3031 15.8H15.4531C15.9271 15.73 16.2621 15.618 16.4581 15.466C16.6151 15.344 16.7491 15.146 16.8621 14.869L19.2781 5.319C19.2926 5.16972 19.275 5.01907 19.2266 4.87714C19.1781 4.7352 19.0999 4.60526 18.9971 4.496C18.8757 4.36327 18.7241 4.26174 18.5551 4.2H17.1491C16.99 4.2 16.8374 4.13679 16.7249 4.02426C16.6123 3.91174 16.5491 3.75913 16.5491 3.6C16.5491 3.44087 16.6123 3.28826 16.7249 3.17574C16.8374 3.06321 16.99 3 17.1491 3H23.5921C23.7513 3 23.9039 3.06321 24.0164 3.17574C24.1289 3.28826 24.1921 3.44087 24.1921 3.6C24.1921 3.75913 24.1289 3.91174 24.0164 4.02426C23.9039 4.13679 23.7513 4.2 23.5921 4.2H22.3971C22.0211 4.256 21.7471 4.355 21.5741 4.496C21.3591 4.671 21.1511 4.935 20.9511 5.286L18.5851 14.633Z" fill="#333333"/>
</g>
<defs>
<clipPath id="clip0_929_19828">
<rect width="38.8374" height="20" fill="white"/>
</clipPath>
</defs>
</svg>
