<svg width="40" height="41" viewBox="0 0 40 41" fill="none" xmlns="http://www.w3.org/2000/svg">
<path d="M30.4804 33.054H9.24933C8.98156 33.054 8.76562 32.8381 8.76562 32.5703V16.4958C8.76562 16.2281 8.98156 16.0121 9.24933 16.0121C9.51709 16.0121 9.73303 16.2281 9.73303 16.4958V32.0909H29.9967V16.4915C29.9967 16.2238 30.2127 16.0078 30.4804 16.0078C30.7482 16.0078 30.9641 16.2238 30.9641 16.4915V32.5703C30.9598 32.8381 30.7439 33.054 30.4804 33.054Z" fill="black"/>
<path d="M34.4494 20.2331C34.3414 20.2331 34.2334 20.1985 34.1427 20.1251L19.9081 8.44284C19.8822 8.42125 19.8476 8.42125 19.8217 8.44284L5.58701 20.1251C5.37971 20.2935 5.0774 20.2633 4.90897 20.0603C4.74053 19.853 4.77077 19.5507 4.97375 19.3823L19.2084 7.70001C19.5885 7.38906 20.1413 7.38906 20.5213 7.70001L34.756 19.3823C34.9633 19.5507 34.9935 19.853 34.8208 20.0603C34.7258 20.1726 34.5876 20.2331 34.4494 20.2331Z" fill="black"/>
<path d="M11.3353 15.0726C11.0675 15.0726 10.8516 14.8567 10.8516 14.5889V8.78448C10.8516 8.51672 11.0675 8.30078 11.3353 8.30078H14.7816C15.0494 8.30078 15.2653 8.51672 15.2653 8.78448V11.8422C15.2653 12.1099 15.0494 12.3259 14.7816 12.3259C14.5139 12.3259 14.2979 12.1099 14.2979 11.8422V9.26819H11.819V14.5932C11.819 14.861 11.603 15.0726 11.3353 15.0726Z" fill="black"/>
<path d="M11.7281 30.2648C11.6288 30.2173 11.5165 30.1223 11.3869 29.9754C11.2055 29.7465 11.1191 29.5695 11.1191 29.4529C11.1191 29.3665 11.1753 29.3233 11.2833 29.3233C11.3524 29.3233 11.4733 29.3492 11.6547 29.401C11.9786 29.4961 12.2593 29.5436 12.5011 29.5436C12.9287 29.5436 13.2742 29.4572 13.5377 29.2888C13.8011 29.116 14.017 28.818 14.1855 28.3948C14.3496 27.9672 14.4964 27.3496 14.613 26.5377L15.5459 20.3187H14.9456C14.7512 20.3187 14.5828 20.3489 14.4446 20.4094C14.3064 20.4698 14.2243 20.5001 14.1898 20.5001C14.1121 20.5001 14.0732 20.4612 14.0732 20.3834C14.0732 20.2971 14.0948 20.2107 14.138 20.1286C14.2416 19.8911 14.3971 19.6881 14.6044 19.5197C14.8117 19.3513 15.032 19.2692 15.2652 19.2692H15.7143L15.7402 19.0403C16.0469 17.2135 16.6126 15.8833 17.4418 15.0498C17.7398 14.7345 18.0292 14.5186 18.3056 14.3976C18.582 14.2767 18.8886 14.1946 19.2212 14.1428C19.4846 14.0996 19.6574 14.0694 19.7394 14.0478C19.8215 14.0262 19.8733 14.0176 19.8992 14.0176C19.9769 14.0176 20.0158 14.0651 20.0158 14.1601C20.0158 14.2378 19.9856 14.3285 19.9208 14.4365C19.856 14.5445 19.7783 14.6438 19.6833 14.7388C19.5969 14.8252 19.5062 14.877 19.4155 14.8986C19.3205 14.9202 19.2039 14.9288 19.057 14.9288C18.7159 14.9288 18.4308 15.0627 18.1976 15.3262C17.9601 15.5896 17.7485 16.0215 17.5628 16.6132C17.377 17.2048 17.2043 18.0168 17.0315 19.0489L16.9927 19.2778H17.5152C17.7701 19.2778 17.973 19.2476 18.1156 19.1871C18.2624 19.1267 18.3488 19.0965 18.3833 19.0965C18.4697 19.0965 18.5129 19.1396 18.5129 19.226C18.5129 19.2951 18.4956 19.3772 18.4611 19.4679C18.3747 19.6795 18.2235 19.8782 18.0076 20.0552C17.7916 20.2323 17.5671 20.323 17.3339 20.323H16.8415L16.1505 24.8534C15.8698 26.7407 15.412 28.1227 14.7771 29.0124C14.1423 29.8977 13.2958 30.3425 12.2377 30.3425C11.9959 30.3339 11.8274 30.308 11.7281 30.2648Z" fill="black"/>
<path d="M19.152 26.9038C19.1218 26.865 19.1045 26.8434 19.1002 26.8391C18.8152 26.4115 18.5949 25.9235 18.4437 25.375C18.2883 24.8222 18.2148 24.2694 18.2148 23.7166C18.2148 23.086 18.3228 22.4555 18.5344 21.8206C18.7461 21.1858 19.0397 20.6028 19.4111 20.0759C19.7826 19.549 20.2015 19.1344 20.6636 18.8321C20.737 18.7802 20.8191 18.75 20.9054 18.75C20.9961 18.75 21.0436 18.7716 21.0436 18.8148C21.0436 18.8623 20.9832 18.9487 20.8666 19.0653C20.4563 19.5274 20.1237 19.9679 19.8603 20.3782C19.6012 20.7885 19.3982 21.2419 19.2557 21.7343C19.1131 22.2266 19.0397 22.7837 19.0397 23.4013C19.0397 23.9239 19.0959 24.386 19.2125 24.7963C19.3291 25.2022 19.5191 25.6428 19.7912 26.1178C19.856 26.2258 19.8862 26.2906 19.8862 26.3208C19.8862 26.3856 19.8473 26.4676 19.7696 26.5713C19.6919 26.6749 19.6012 26.7656 19.5018 26.8477C19.4025 26.9298 19.3248 26.9686 19.2643 26.9686C19.2168 26.96 19.1779 26.9384 19.152 26.9038Z" fill="black"/>
<path d="M19.8252 25.6997C19.7907 25.6392 19.9375 25.4189 20.2658 25.0346L20.4428 24.8229C20.5163 24.7409 20.581 24.6977 20.6329 24.6977C20.676 24.6977 20.7063 24.7193 20.7322 24.7625C20.8142 24.8445 20.8834 24.905 20.9395 24.9439C20.9956 24.9827 21.0691 25 21.1598 25C21.3109 25 21.4534 24.9266 21.5873 24.7798C21.7212 24.6329 21.9026 24.3738 22.1272 24.0067L22.6152 23.2034L22.1617 21.64C22.1012 21.437 22.0451 21.2988 21.9933 21.2254C21.9371 21.152 21.8723 21.1131 21.7989 21.1131C21.7082 21.1131 21.6305 21.1606 21.5657 21.2513C21.5009 21.342 21.4232 21.4932 21.3325 21.7048C21.2807 21.8214 21.2418 21.9035 21.2073 21.9423C21.1727 21.9855 21.1338 22.0071 21.082 22.0071C20.9913 22.0071 20.9438 21.9423 20.9438 21.8041C20.9438 21.5968 21 21.3463 21.1122 21.057C21.2245 20.7676 21.3843 20.5171 21.5959 20.3098C21.8032 20.1025 22.0451 19.9946 22.3129 19.9946C22.572 19.9946 22.7836 20.1241 22.9477 20.3789C23.1118 20.6337 23.2889 21.1002 23.4833 21.7782L23.6215 21.5752C23.9972 21.0311 24.3211 20.6294 24.5932 20.3746C24.8653 20.1198 25.1417 19.9902 25.4267 19.9902C25.5606 19.9902 25.6945 20.0161 25.8283 20.0723C25.9622 20.1284 26.0788 20.1932 26.1782 20.2666C26.2041 20.2925 26.217 20.3141 26.217 20.3314C26.217 20.3746 26.1825 20.4394 26.1177 20.5344C25.9925 20.7201 25.8413 20.9058 25.6599 21.1002C25.4785 21.2945 25.3662 21.3895 25.3144 21.3895C25.3058 21.3895 25.2799 21.3722 25.2324 21.3334C25.1848 21.2945 25.1201 21.2772 25.038 21.2772C24.8955 21.2772 24.7443 21.3636 24.5802 21.5364C24.4161 21.7091 24.1743 22.0287 23.859 22.4951L23.7208 22.7197C23.8806 23.4971 24.0706 24.1233 24.2995 24.5897C24.3988 24.8489 24.5154 24.9784 24.6493 24.9784C24.7314 24.9784 24.8048 24.9352 24.8696 24.8445C24.9344 24.7582 25.0121 24.607 25.1157 24.3997C25.1719 24.2917 25.2194 24.214 25.2539 24.1665C25.2885 24.119 25.3274 24.0974 25.3792 24.0974C25.431 24.0974 25.4613 24.1103 25.4785 24.1406C25.4958 24.1708 25.5044 24.2313 25.5044 24.322C25.5044 24.5465 25.4397 24.8013 25.3144 25.0821C25.1892 25.3628 25.0251 25.6003 24.8178 25.799C24.6105 25.9976 24.3988 26.0927 24.1699 26.0927C23.9454 26.0927 23.7424 25.9761 23.561 25.7428C23.3796 25.5096 23.1809 25.0734 22.965 24.4343L22.8916 24.2097L22.8182 24.3349C22.4424 24.9568 22.0883 25.4017 21.7644 25.6781C21.4362 25.9545 21.095 26.0927 20.7365 26.0927C20.3305 26.1013 20.0282 25.9674 19.8252 25.6997Z" fill="black"/>
<path d="M27.7116 18.8674C28.0182 19.2432 28.2428 19.7096 28.3896 20.2667C28.5365 20.8238 28.6099 21.3982 28.6099 21.9813C28.6099 22.6118 28.5019 23.2467 28.2903 23.8902C28.0787 24.5337 27.785 25.1167 27.4136 25.6436C27.0422 26.1705 26.6233 26.5808 26.1525 26.8744C26.0618 26.9263 25.9798 26.9565 25.9107 26.9565C25.82 26.9565 25.7725 26.9349 25.7725 26.8917C25.7725 26.8485 25.8329 26.7621 25.9495 26.6326C26.3598 26.1921 26.6967 25.7602 26.9601 25.3456C27.2236 24.931 27.4266 24.4732 27.5648 23.9765C27.703 23.4799 27.7764 22.9228 27.7764 22.2965C27.7764 21.774 27.7202 21.3075 27.6079 20.9016C27.4957 20.4913 27.3013 20.0551 27.0249 19.5843C26.9644 19.4893 26.9342 19.4202 26.9342 19.3814C26.9342 19.3166 26.9731 19.2345 27.0508 19.1309C27.1286 19.0272 27.2149 18.9365 27.3143 18.8588C27.4136 18.7811 27.4913 18.7422 27.5475 18.7422C27.5993 18.7465 27.6511 18.7854 27.7116 18.8674Z" fill="black"/>
</svg>
