<svg width="16" height="16" viewBox="0 0 16 16" fill="none" xmlns="http://www.w3.org/2000/svg">
<path d="M1.7507 0C0.755955 0 -0.198051 0.421427 -0.901444 1.17157C-1.60484 1.92172 -2 2.93913 -2 4V12C-2 13.0609 -1.60484 14.0783 -0.901444 14.8284C-0.198051 15.5786 0.755955 16 1.7507 16H8.00188C8.99662 16 9.95063 15.5786 10.654 14.8284C11.3574 14.0783 11.7526 13.0609 11.7526 12V11.572L15.5495 14.368C15.7841 14.5407 16.0585 14.6416 16.343 14.6599C16.6275 14.6782 16.9113 14.6132 17.1636 14.4719C17.416 14.3307 17.6273 14.1185 17.7747 13.8583C17.9222 13.5982 18 13.3 18 12.996V3.00267C17.9998 2.69882 17.9218 2.4008 17.7743 2.14084C17.6267 1.88088 17.4154 1.66887 17.1631 1.52774C16.9108 1.38661 16.6271 1.32172 16.3427 1.3401C16.0583 1.35847 15.784 1.45941 15.5495 1.632L11.7526 4.42667V4C11.7526 2.93913 11.3574 1.92172 10.654 1.17157C9.95063 0.421427 8.99662 0 8.00188 0L1.7507 0ZM11.7526 6.048L16.2597 2.728C16.3066 2.69346 16.3615 2.67327 16.4184 2.66961C16.4754 2.66596 16.5321 2.67898 16.5826 2.70727C16.6331 2.73556 16.6753 2.77804 16.7048 2.83011C16.7343 2.88218 16.7498 2.94185 16.7498 3.00267V12.996C16.7498 13.0568 16.7343 13.1165 16.7048 13.1686C16.6753 13.2206 16.6331 13.2631 16.5826 13.2914C16.5321 13.3197 16.4754 13.3327 16.4184 13.3291C16.3615 13.3254 16.3066 13.3052 16.2597 13.2707L11.7526 9.95067V6.048ZM-0.749766 4C-0.749766 3.29276 -0.486324 2.61448 -0.0173953 2.11438C0.451534 1.61428 1.08754 1.33333 1.7507 1.33333H8.00188C8.66504 1.33333 9.30105 1.61428 9.76997 2.11438C10.2389 2.61448 10.5023 3.29276 10.5023 4V12C10.5023 12.7072 10.2389 13.3855 9.76997 13.8856C9.30105 14.3857 8.66504 14.6667 8.00188 14.6667H1.7507C1.08754 14.6667 0.451534 14.3857 -0.0173953 13.8856C-0.486324 13.3855 -0.749766 12.7072 -0.749766 12V4Z" fill="black"/>
</svg>
