<svg width="18" height="18" viewBox="0 0 18 18" fill="none" xmlns="http://www.w3.org/2000/svg">
<path d="M1.96979 16.0274H3.34865L11.8434 7.52055L10.4645 6.13973L1.96979 14.6466V16.0274ZM16.0538 6.09041L11.868 1.94795L13.2469 0.567123C13.6244 0.189041 14.0881 0 14.638 0C15.1879 0 15.6516 0.189041 16.0292 0.567123L17.408 1.94795C17.7856 2.32603 17.9826 2.78219 17.999 3.31644C18.0154 3.85068 17.8348 4.30685 17.4573 4.68493L16.0538 6.09041ZM0.984896 18C0.705842 18 0.471929 17.9055 0.283158 17.7164C0.0943859 17.5274 0 17.2932 0 17.0137V14.2274C0 14.0959 0.0246224 13.9685 0.0738672 13.8452C0.123112 13.7219 0.196979 13.611 0.295469 13.5123L10.4399 3.35342L14.6257 7.54521L4.48128 17.7041C4.38279 17.8027 4.27199 17.8767 4.14887 17.926C4.02576 17.9753 3.89855 18 3.76723 18H0.984896ZM11.1539 6.83014L10.4645 6.13973L11.8434 7.52055L11.1539 6.83014Z" fill="#27323C"/>
</svg>
