<svg width="16" height="16" viewBox="0 0 16 16" fill="none" xmlns="http://www.w3.org/2000/svg">
<path d="M12.6193 13.3327C11.4958 13.3327 10.3438 13.0513 9.16335 12.4887C7.9829 11.926 6.88424 11.136 5.86735 10.1187C4.85846 9.10179 4.07268 8.00513 3.51002 6.82868C2.94735 5.65224 2.66602 4.50246 2.66602 3.37935C2.66602 3.17935 2.73268 3.01046 2.86602 2.87268C2.99935 2.7349 3.16602 2.66602 3.36602 2.66602H5.01468C5.19602 2.66602 5.35424 2.72313 5.48935 2.83735C5.62446 2.95157 5.71579 3.09802 5.76335 3.27668L6.09402 4.86602C6.12513 5.05268 6.11957 5.21557 6.07735 5.35468C6.03513 5.49379 5.96113 5.60779 5.85535 5.69668L4.39268 7.06068C4.66646 7.55713 4.9689 8.01846 5.30002 8.44468C5.63113 8.8709 5.98446 9.27468 6.36002 9.65602C6.74668 10.0427 7.16313 10.4027 7.60935 10.736C8.05557 11.0689 8.54535 11.3831 9.07868 11.6787L10.5047 10.2273C10.6131 10.1105 10.7351 10.0333 10.8707 9.99602C11.0058 9.95913 11.1556 9.95179 11.32 9.97402L12.722 10.2607C12.9033 10.3051 13.0505 10.3965 13.1633 10.5347C13.2762 10.6729 13.3327 10.8311 13.3327 11.0093V12.6327C13.3327 12.8327 13.2638 12.9993 13.126 13.1327C12.9882 13.266 12.8193 13.3327 12.6193 13.3327Z" fill="white"/>
</svg>
