<svg width="181" height="262" viewBox="0 0 181 262" fill="none" xmlns="http://www.w3.org/2000/svg">
<path d="M161.586 250.319L18.6342 250.242C17.9445 250.242 18.5565 249.029 19.0131 248.375L22.3938 243.549C22.8018 242.964 23.647 242.5 24.2882 242.5H155.971C156.612 242.5 157.457 242.964 157.865 243.549L161.246 248.375C161.702 249.02 162.285 250.31 161.605 250.31L161.586 250.319Z" fill="url(#paint0_linear_1166_26614)"/>
<path d="M160.362 248.883H19.8876C18.9486 248.883 18.1875 249.557 18.1875 250.388V260.392C18.1875 261.223 18.9486 261.897 19.8876 261.897H160.362C161.301 261.897 162.062 261.223 162.062 260.392V250.388C162.062 249.557 161.301 248.883 160.362 248.883Z" fill="url(#paint1_linear_1166_26614)"/>
<path d="M139.511 220.283H40.7324V244.824H139.511V220.283Z" fill="url(#paint2_linear_1166_26614)"/>
<g style="mix-blend-mode:multiply">
<path d="M139.511 220.283H40.7324V235.56H139.511V220.283Z" fill="#D1D1D1"/>
</g>
<path d="M11.7645 224.816C5.27508 224.816 0 220.567 0 215.337V9.47915C0 4.24927 5.27508 0 11.7645 0H168.482C174.971 0 180.246 4.24927 180.246 9.47915V215.337C180.246 220.567 174.971 224.816 168.482 224.816H11.7645Z" fill="url(#paint3_linear_1166_26614)"/>
<path d="M11.7639 223.096C6.34314 223.096 1.94238 219.612 1.94238 215.337V9.4795C1.94238 5.20442 6.35285 1.7207 11.7639 1.7207H168.481C173.902 1.7207 178.303 5.20442 178.303 9.4795V215.337C178.303 219.612 173.892 223.096 168.481 223.096H11.7639Z" fill="#A10000"/>
<path style="mix-blend-mode:overlay" opacity="0.74" d="M43.988 134.204C59.0263 120.888 74.0646 107.581 89.1127 94.2741C104.093 81.0188 119.083 67.7721 134.072 54.534C148.159 42.0872 162.255 29.649 176.36 17.2109V9.4779C176.36 6.14901 172.824 3.43945 168.482 3.43945H11.7644C7.42189 3.43945 3.88574 6.14901 3.88574 9.4779V169.703C17.2532 157.867 30.6206 146.031 43.988 134.204Z" fill="url(#paint4_linear_1166_26614)"/>
<path d="M15.7481 214.494C13.4943 214.494 11.6582 212.868 11.6582 210.873V13.849C11.6582 11.8964 13.4457 10.3223 15.6412 10.3223H164.499C166.743 10.3223 168.589 11.948 168.589 13.9436V210.873C168.589 212.868 166.763 214.494 164.499 214.494H15.7481Z" fill="url(#paint5_linear_1166_26614)"/>
<path d="M15.7468 211.913C15.1056 211.913 14.5713 211.44 14.5713 210.872V13.8485C14.5713 13.3238 15.0473 12.9023 15.6399 12.9023H164.498C165.139 12.9023 165.674 13.3754 165.674 13.9432V210.872C165.674 211.448 165.149 211.913 164.498 211.913H15.7468Z" fill="url(#paint6_linear_1166_26614)"/>
<path d="M59.1055 103.012V91.5848H63.6138C64.4805 91.5848 65.2189 91.7504 65.8289 92.0814C66.4389 92.4087 66.9039 92.8644 67.2238 93.4484C67.5474 94.0287 67.7092 94.6982 67.7092 95.457C67.7092 96.2158 67.5455 96.8854 67.2182 97.4657C66.8909 98.0459 66.4166 98.4979 65.7954 98.8215C65.1779 99.1451 64.4303 99.3069 63.5524 99.3069H60.679V97.3708H63.1619C63.6268 97.3708 64.01 97.2908 64.3113 97.1309C64.6163 96.9672 64.8432 96.7422 64.992 96.4558C65.1445 96.1656 65.2207 95.8327 65.2207 95.457C65.2207 95.0776 65.1445 94.7466 64.992 94.4639C64.8432 94.1774 64.6163 93.9561 64.3113 93.7999C64.0062 93.64 63.6194 93.56 63.1507 93.56H61.5215V103.012H59.1055ZM69.2338 103.012V94.4415H71.5381V95.9369H71.6274C71.7836 95.4049 72.0459 95.0032 72.4141 94.7317C72.7824 94.4564 73.2064 94.3188 73.6863 94.3188C73.8053 94.3188 73.9336 94.3262 74.0713 94.3411C74.2089 94.356 74.3298 94.3765 74.4339 94.4025V96.5116C74.3223 96.4781 74.168 96.4483 73.9708 96.4223C73.7737 96.3962 73.5933 96.3832 73.4296 96.3832C73.08 96.3832 72.7675 96.4595 72.4923 96.612C72.2207 96.7608 72.005 96.9691 71.845 97.2369C71.6888 97.5047 71.6107 97.8134 71.6107 98.1631V103.012H69.2338ZM79.1361 103.179C78.2694 103.179 77.5199 102.995 76.8875 102.627C76.2589 102.255 75.7735 101.738 75.4313 101.076C75.0891 100.41 74.918 99.638 74.918 98.7601C74.918 97.8748 75.0891 97.1011 75.4313 96.439C75.7735 95.7732 76.2589 95.2562 76.8875 94.8879C77.5199 94.5159 78.2694 94.33 79.1361 94.33C80.0028 94.33 80.7504 94.5159 81.3791 94.8879C82.0114 95.2562 82.4987 95.7732 82.8409 96.439C83.1831 97.1011 83.3542 97.8748 83.3542 98.7601C83.3542 99.638 83.1831 100.41 82.8409 101.076C82.4987 101.738 82.0114 102.255 81.3791 102.627C80.7504 102.995 80.0028 103.179 79.1361 103.179ZM79.1472 101.338C79.5415 101.338 79.8707 101.226 80.1348 101.003C80.3989 100.776 80.5979 100.467 80.7318 100.077C80.8695 99.6863 80.9383 99.2418 80.9383 98.7434C80.9383 98.2449 80.8695 97.8004 80.7318 97.4099C80.5979 97.0193 80.3989 96.7106 80.1348 96.4837C79.8707 96.2568 79.5415 96.1433 79.1472 96.1433C78.7492 96.1433 78.4145 96.2568 78.1429 96.4837C77.8751 96.7106 77.6724 97.0193 77.5348 97.4099C77.4008 97.8004 77.3339 98.2449 77.3339 98.7434C77.3339 99.2418 77.4008 99.6863 77.5348 100.077C77.6724 100.467 77.8751 100.776 78.1429 101.003C78.4145 101.226 78.7492 101.338 79.1472 101.338ZM84.9444 103.012V91.5848H87.3213V95.8811H87.3938C87.498 95.6504 87.6486 95.4161 87.8457 95.178C88.0466 94.9363 88.307 94.7354 88.6269 94.5755C88.9505 94.4118 89.3522 94.33 89.8321 94.33C90.457 94.33 91.0335 94.4936 91.5617 94.821C92.0899 95.1446 92.5121 95.6337 92.8283 96.2884C93.1444 96.9393 93.3025 97.7558 93.3025 98.7378C93.3025 99.6938 93.1482 100.501 92.8394 101.159C92.5344 101.814 92.1178 102.311 91.5896 102.649C91.0651 102.984 90.4774 103.151 89.8265 103.151C89.3652 103.151 88.9728 103.075 88.6492 102.922C88.3293 102.77 88.0671 102.578 87.8625 102.348C87.6579 102.113 87.5017 101.877 87.3938 101.639H87.2878V103.012H84.9444ZM87.2711 98.7266C87.2711 99.2362 87.3417 99.6807 87.4831 100.06C87.6244 100.44 87.829 100.735 88.0968 100.947C88.3646 101.156 88.6901 101.26 89.0732 101.26C89.4601 101.26 89.7874 101.154 90.0552 100.942C90.3231 100.726 90.5258 100.428 90.6634 100.049C90.8048 99.6659 90.8754 99.2251 90.8754 98.7266C90.8754 98.2319 90.8066 97.7967 90.669 97.421C90.5314 97.0453 90.3286 96.7515 90.0608 96.5395C89.793 96.3274 89.4638 96.2214 89.0732 96.2214C88.6864 96.2214 88.3591 96.3237 88.0912 96.5283C87.8271 96.7329 87.6244 97.023 87.4831 97.3987C87.3417 97.7744 87.2711 98.217 87.2711 98.7266ZM97.2654 91.5848V103.012H94.8885V91.5848H97.2654ZM103.075 103.179C102.194 103.179 101.435 103.001 100.799 102.643C100.166 102.283 99.679 101.773 99.3368 101.115C98.9946 100.453 98.8235 99.6696 98.8235 98.7657C98.8235 97.8841 98.9946 97.1104 99.3368 96.4446C99.679 95.7788 100.161 95.2599 100.782 94.8879C101.407 94.5159 102.14 94.33 102.98 94.33C103.546 94.33 104.072 94.4211 104.559 94.6034C105.05 94.7819 105.478 95.0516 105.843 95.4124C106.211 95.7732 106.497 96.227 106.702 96.7738C106.906 97.3169 107.009 97.9529 107.009 98.682V99.3348H99.772V97.8618H104.771C104.771 97.5196 104.697 97.2164 104.548 96.9523C104.399 96.6882 104.193 96.4818 103.929 96.333C103.668 96.1805 103.365 96.1043 103.019 96.1043C102.658 96.1043 102.339 96.1879 102.06 96.3553C101.784 96.519 101.569 96.7403 101.412 97.0193C101.256 97.2946 101.176 97.6014 101.172 97.9399V99.3404C101.172 99.7644 101.251 100.131 101.407 100.44C101.567 100.748 101.792 100.986 102.082 101.154C102.372 101.321 102.716 101.405 103.114 101.405C103.378 101.405 103.62 101.368 103.839 101.293C104.059 101.219 104.247 101.107 104.403 100.958C104.559 100.81 104.678 100.627 104.76 100.412L106.958 100.557C106.847 101.085 106.618 101.546 106.272 101.94C105.93 102.331 105.487 102.636 104.944 102.855C104.405 103.071 103.782 103.179 103.075 103.179ZM108.56 103.012V94.4415H110.825V95.9536H110.926C111.104 95.4514 111.402 95.0553 111.818 94.7652C112.235 94.475 112.733 94.33 113.314 94.33C113.901 94.33 114.402 94.4769 114.814 94.7707C115.227 95.0609 115.503 95.4552 115.64 95.9536H115.729C115.904 95.4626 116.22 95.0702 116.678 94.7763C117.139 94.4787 117.684 94.33 118.313 94.33C119.113 94.33 119.762 94.5848 120.26 95.0944C120.762 95.6002 121.013 96.3181 121.013 97.2481V103.012H118.642V97.7167C118.642 97.2406 118.516 96.8835 118.263 96.6455C118.01 96.4074 117.693 96.2884 117.314 96.2884C116.883 96.2884 116.546 96.426 116.304 96.7013C116.062 96.9728 115.942 97.3317 115.942 97.7781V103.012H113.637V97.6665C113.637 97.2462 113.516 96.9114 113.274 96.6622C113.036 96.413 112.722 96.2884 112.332 96.2884C112.067 96.2884 111.829 96.3553 111.617 96.4892C111.409 96.6194 111.244 96.8036 111.121 97.0416C110.998 97.276 110.937 97.5512 110.937 97.8674V103.012H108.56Z" fill="#1E1E1E"/>
<rect x="39.0449" y="113.994" width="101.966" height="25.9831" rx="5.23733" fill="white" fill-opacity="0.8"/>
<path d="M47.3522 132.486V121.059H51.9275C52.7681 121.059 53.4693 121.184 54.031 121.433C54.5926 121.682 55.0148 122.028 55.2975 122.471C55.5802 122.91 55.7216 123.416 55.7216 123.989C55.7216 124.435 55.6323 124.827 55.4537 125.166C55.2752 125.501 55.0297 125.776 54.7172 125.992C54.4085 126.204 54.0551 126.354 53.6571 126.444V126.555C54.0923 126.574 54.4996 126.697 54.879 126.924C55.2622 127.15 55.5728 127.468 55.8108 127.878C56.0489 128.283 56.1679 128.767 56.1679 129.328C56.1679 129.935 56.0173 130.476 55.716 130.952C55.4184 131.424 54.9776 131.798 54.3936 132.073C53.8096 132.349 53.0899 132.486 52.2343 132.486H47.3522ZM49.7682 130.511H51.7378C52.411 130.511 52.902 130.383 53.2108 130.126C53.5195 129.866 53.6739 129.52 53.6739 129.088C53.6739 128.772 53.5976 128.493 53.4451 128.251C53.2926 128.01 53.075 127.82 52.7923 127.682C52.5133 127.545 52.1804 127.476 51.7936 127.476H49.7682V130.511ZM49.7682 125.841H51.5592C51.8903 125.841 52.1841 125.783 52.4408 125.668C52.7012 125.549 52.9057 125.382 53.0545 125.166C53.207 124.95 53.2833 124.692 53.2833 124.39C53.2833 123.978 53.1364 123.645 52.8425 123.392C52.5524 123.139 52.1395 123.012 51.6039 123.012H49.7682V125.841ZM60.1392 132.648C59.5924 132.648 59.1051 132.553 58.6773 132.364C58.2496 132.17 57.9111 131.886 57.6618 131.51C57.4163 131.131 57.2936 130.658 57.2936 130.093C57.2936 129.617 57.381 129.217 57.5558 128.893C57.7307 128.569 57.9687 128.309 58.27 128.112C58.5713 127.915 58.9135 127.766 59.2966 127.666C59.6835 127.565 60.0889 127.495 60.513 127.454C61.0114 127.402 61.4131 127.353 61.7182 127.309C62.0232 127.26 62.2445 127.189 62.3821 127.096C62.5198 127.004 62.5886 126.866 62.5886 126.684V126.65C62.5886 126.297 62.477 126.023 62.2538 125.83C62.0343 125.637 61.7219 125.54 61.3164 125.54C60.8887 125.54 60.5483 125.635 60.2954 125.824C60.0424 126.01 59.8751 126.245 59.7932 126.527L57.5949 126.349C57.7065 125.828 57.9259 125.378 58.2533 124.999C58.5806 124.615 59.0028 124.322 59.5198 124.117C60.0406 123.909 60.6432 123.805 61.3276 123.805C61.8037 123.805 62.2594 123.86 62.6946 123.972C63.1335 124.084 63.5222 124.257 63.8607 124.491C64.2029 124.725 64.4726 125.026 64.6697 125.395C64.8669 125.759 64.9655 126.196 64.9655 126.706V132.486H62.7113V131.298H62.6444C62.5067 131.566 62.3226 131.802 62.092 132.006C61.8614 132.207 61.5843 132.365 61.2606 132.481C60.937 132.592 60.5632 132.648 60.1392 132.648ZM60.8199 131.008C61.1695 131.008 61.4782 130.939 61.7461 130.801C62.0139 130.66 62.224 130.47 62.3765 130.232C62.5291 129.994 62.6053 129.724 62.6053 129.423V128.514C62.5309 128.562 62.4286 128.607 62.2984 128.648C62.172 128.685 62.0288 128.72 61.8688 128.754C61.7089 128.783 61.5489 128.811 61.389 128.837C61.229 128.86 61.084 128.88 60.9538 128.899C60.6748 128.94 60.4311 129.005 60.2228 129.094C60.0145 129.183 59.8527 129.304 59.7374 129.457C59.6221 129.605 59.5645 129.791 59.5645 130.015C59.5645 130.338 59.6816 130.586 59.916 130.757C60.154 130.924 60.4553 131.008 60.8199 131.008ZM69.9675 132.626C69.3166 132.626 68.727 132.458 68.1988 132.124C67.6743 131.785 67.2577 131.289 66.949 130.634C66.644 129.976 66.4915 129.168 66.4915 128.212C66.4915 127.23 66.6495 126.414 66.9657 125.763C67.2819 125.108 67.7022 124.619 68.2267 124.296C68.7549 123.968 69.3333 123.805 69.9619 123.805C70.4418 123.805 70.8416 123.886 71.1615 124.05C71.4851 124.21 71.7455 124.411 71.9427 124.653C72.1435 124.891 72.296 125.125 72.4002 125.356H72.4727V121.059H74.844V132.486H72.5006V131.114H72.4002C72.2886 131.352 72.1305 131.588 71.9259 131.822C71.7251 132.053 71.4628 132.245 71.1392 132.397C70.8193 132.55 70.4288 132.626 69.9675 132.626ZM70.7207 130.734C71.1039 130.734 71.4275 130.63 71.6916 130.422C71.9594 130.21 72.164 129.914 72.3053 129.535C72.4504 129.155 72.5229 128.711 72.5229 128.201C72.5229 127.692 72.4523 127.249 72.3109 126.873C72.1696 126.498 71.965 126.207 71.6972 126.003C71.4293 125.798 71.1039 125.696 70.7207 125.696C70.3302 125.696 70.001 125.802 69.7332 126.014C69.4654 126.226 69.2626 126.52 69.125 126.896C68.9874 127.271 68.9186 127.707 68.9186 128.201C68.9186 128.7 68.9874 129.14 69.125 129.524C69.2663 129.903 69.4691 130.201 69.7332 130.416C70.001 130.628 70.3302 130.734 70.7207 130.734ZM86.6782 124.346C86.6336 123.896 86.442 123.546 86.1035 123.297C85.765 123.048 85.3057 122.923 84.7254 122.923C84.3311 122.923 83.9982 122.979 83.7267 123.09C83.4551 123.198 83.2468 123.349 83.1017 123.542C82.9604 123.736 82.8897 123.955 82.8897 124.201C82.8823 124.405 82.9251 124.584 83.0181 124.736C83.1148 124.889 83.2468 125.021 83.4142 125.132C83.5816 125.24 83.775 125.335 83.9945 125.417C84.2139 125.495 84.4483 125.562 84.6975 125.618L85.7241 125.863C86.2226 125.975 86.6801 126.124 87.0967 126.31C87.5133 126.496 87.8741 126.725 88.1791 126.996C88.4841 127.268 88.7203 127.587 88.8877 127.956C89.0588 128.324 89.1462 128.746 89.15 129.222C89.1462 129.922 88.9677 130.528 88.6143 131.041C88.2647 131.551 87.7588 131.947 87.0967 132.23C86.4383 132.509 85.6442 132.648 84.7142 132.648C83.7917 132.648 82.9883 132.507 82.3039 132.224C81.6232 131.941 81.0912 131.523 80.7081 130.969C80.3287 130.411 80.1297 129.721 80.1111 128.899H82.4489C82.475 129.282 82.5847 129.602 82.7781 129.858C82.9753 130.111 83.2375 130.303 83.5648 130.433C83.8959 130.56 84.2697 130.623 84.6863 130.623C85.0955 130.623 85.4507 130.563 85.752 130.444C86.057 130.325 86.2932 130.16 86.4606 129.948C86.628 129.736 86.7117 129.492 86.7117 129.217C86.7117 128.96 86.6355 128.744 86.4829 128.569C86.3342 128.395 86.1147 128.246 85.8246 128.123C85.5381 128 85.1866 127.889 84.77 127.788L83.5258 127.476C82.5624 127.242 81.8017 126.875 81.2438 126.377C80.6858 125.878 80.4087 125.207 80.4124 124.363C80.4087 123.671 80.5928 123.066 80.9648 122.549C81.3405 122.032 81.8556 121.629 82.5103 121.338C83.165 121.048 83.9089 120.903 84.7421 120.903C85.5902 120.903 86.3304 121.048 86.9628 121.338C87.5989 121.629 88.0936 122.032 88.4469 122.549C88.8003 123.066 88.9826 123.665 88.9937 124.346H86.6782ZM95.2888 123.916V125.702H90.1278V123.916H95.2888ZM91.2995 121.863H93.6764V129.853C93.6764 130.072 93.7098 130.243 93.7768 130.366C93.8437 130.485 93.9367 130.569 94.0558 130.617C94.1785 130.666 94.3199 130.69 94.4798 130.69C94.5914 130.69 94.703 130.68 94.8146 130.662C94.9262 130.64 95.0117 130.623 95.0712 130.612L95.4451 132.38C95.326 132.418 95.1587 132.46 94.9429 132.509C94.7272 132.561 94.4649 132.592 94.1562 132.603C93.5834 132.626 93.0812 132.55 92.6497 132.375C92.222 132.2 91.8891 131.928 91.651 131.56C91.4129 131.192 91.2958 130.727 91.2995 130.165V121.863ZM99.281 132.648C98.7342 132.648 98.2469 132.553 97.8192 132.364C97.3914 132.17 97.0529 131.886 96.8037 131.51C96.5582 131.131 96.4354 130.658 96.4354 130.093C96.4354 129.617 96.5229 129.217 96.6977 128.893C96.8725 128.569 97.1106 128.309 97.4119 128.112C97.7132 127.915 98.0554 127.766 98.4385 127.666C98.8253 127.565 99.2308 127.495 99.6548 127.454C100.153 127.402 100.555 127.353 100.86 127.309C101.165 127.26 101.386 127.189 101.524 127.096C101.662 127.004 101.73 126.866 101.73 126.684V126.65C101.73 126.297 101.619 126.023 101.396 125.83C101.176 125.637 100.864 125.54 100.458 125.54C100.031 125.54 99.6902 125.635 99.4372 125.824C99.1843 126.01 99.0169 126.245 98.9351 126.527L96.7367 126.349C96.8483 125.828 97.0678 125.378 97.3951 124.999C97.7225 124.615 98.1446 124.322 98.6617 124.117C99.1824 123.909 99.785 123.805 100.469 123.805C100.946 123.805 101.401 123.86 101.836 123.972C102.275 124.084 102.664 124.257 103.003 124.491C103.345 124.725 103.614 125.026 103.812 125.395C104.009 125.759 104.107 126.196 104.107 126.706V132.486H101.853V131.298H101.786C101.649 131.566 101.464 131.802 101.234 132.006C101.003 132.207 100.726 132.365 100.402 132.481C100.079 132.592 99.7051 132.648 99.281 132.648ZM99.9617 131.008C100.311 131.008 100.62 130.939 100.888 130.801C101.156 130.66 101.366 130.47 101.518 130.232C101.671 129.994 101.747 129.724 101.747 129.423V128.514C101.673 128.562 101.57 128.607 101.44 128.648C101.314 128.685 101.171 128.72 101.011 128.754C100.851 128.783 100.691 128.811 100.531 128.837C100.371 128.86 100.226 128.88 100.096 128.899C99.8166 128.94 99.573 129.005 99.3647 129.094C99.1564 129.183 98.9946 129.304 98.8793 129.457C98.764 129.605 98.7063 129.791 98.7063 130.015C98.7063 130.338 98.8235 130.586 99.0578 130.757C99.2959 130.924 99.5972 131.008 99.9617 131.008ZM105.951 132.486V123.916H108.256V125.411H108.345C108.501 124.88 108.763 124.478 109.132 124.206C109.5 123.931 109.924 123.793 110.404 123.793C110.523 123.793 110.651 123.801 110.789 123.816C110.926 123.831 111.047 123.851 111.151 123.877V125.986C111.04 125.953 110.886 125.923 110.688 125.897C110.491 125.871 110.311 125.858 110.147 125.858C109.798 125.858 109.485 125.934 109.21 126.087C108.938 126.235 108.723 126.444 108.563 126.712C108.406 126.979 108.328 127.288 108.328 127.638V132.486H105.951ZM117.368 123.916V125.702H112.207V123.916H117.368ZM113.379 121.863H115.756V129.853C115.756 130.072 115.789 130.243 115.856 130.366C115.923 130.485 116.016 130.569 116.135 130.617C116.258 130.666 116.4 130.69 116.559 130.69C116.671 130.69 116.783 130.68 116.894 130.662C117.006 130.64 117.091 130.623 117.151 130.612L117.525 132.38C117.406 132.418 117.238 132.46 117.023 132.509C116.807 132.561 116.545 132.592 116.236 132.603C115.663 132.626 115.161 132.55 114.729 132.375C114.302 132.2 113.969 131.928 113.731 131.56C113.493 131.192 113.375 130.727 113.379 130.165V121.863ZM122.73 132.654C121.849 132.654 121.09 132.475 120.454 132.118C119.822 131.757 119.334 131.248 118.992 130.589C118.65 129.927 118.479 129.144 118.479 128.24C118.479 127.359 118.65 126.585 118.992 125.919C119.334 125.253 119.816 124.734 120.437 124.363C121.062 123.991 121.795 123.805 122.636 123.805C123.201 123.805 123.727 123.896 124.215 124.078C124.706 124.257 125.133 124.526 125.498 124.887C125.866 125.248 126.153 125.702 126.357 126.248C126.562 126.791 126.664 127.428 126.664 128.157V128.809H119.427V127.336H124.427C124.427 126.994 124.352 126.691 124.203 126.427C124.055 126.163 123.848 125.956 123.584 125.808C123.324 125.655 123.021 125.579 122.675 125.579C122.314 125.579 121.994 125.663 121.715 125.83C121.44 125.994 121.224 126.215 121.068 126.494C120.911 126.769 120.832 127.076 120.828 127.415V128.815C120.828 129.239 120.906 129.605 121.062 129.914C121.222 130.223 121.447 130.461 121.737 130.628C122.027 130.796 122.371 130.879 122.769 130.879C123.034 130.879 123.275 130.842 123.495 130.768C123.714 130.693 123.902 130.582 124.058 130.433C124.215 130.284 124.334 130.102 124.415 129.886L126.614 130.031C126.502 130.56 126.273 131.021 125.927 131.415C125.585 131.806 125.143 132.111 124.6 132.33C124.06 132.546 123.437 132.654 122.73 132.654ZM128.215 132.486V123.916H130.519V125.411H130.609C130.765 124.88 131.027 124.478 131.395 124.206C131.764 123.931 132.188 123.793 132.668 123.793C132.787 123.793 132.915 123.801 133.053 123.816C133.19 123.831 133.311 123.851 133.415 123.877V125.986C133.304 125.953 133.149 125.923 132.952 125.897C132.755 125.871 132.575 125.858 132.411 125.858C132.061 125.858 131.749 125.934 131.474 126.087C131.202 126.235 130.986 126.444 130.826 126.712C130.67 126.979 130.592 127.288 130.592 127.638V132.486H128.215Z" fill="#D70404"/>
<path style="mix-blend-mode:overlay" d="M40.0721 143.692L96.6407 93.6036C115.419 76.9764 134.198 60.3491 152.986 43.7133L157.902 39.3608V19.7832H22.3428V159.39C28.2493 154.16 34.1655 148.922 40.0721 143.692Z" fill="url(#paint7_linear_1166_26614)"/>
<defs>
<linearGradient id="paint0_linear_1166_26614" x1="90.1149" y1="267.712" x2="90.1149" y2="257.321" gradientUnits="userSpaceOnUse">
<stop stop-color="#A10000"/>
<stop offset="0.41" stop-color="#9A3636"/>
<stop offset="1" stop-color="#7F4242"/>
</linearGradient>
<linearGradient id="paint1_linear_1166_26614" x1="90.1248" y1="261.235" x2="90.1248" y2="243.928" gradientUnits="userSpaceOnUse">
<stop stop-color="#D70404"/>
<stop offset="0.21" stop-color="#BF6969"/>
<stop offset="0.57" stop-color="#994A4A"/>
<stop offset="0.61" stop-color="#523E3E"/>
</linearGradient>
<linearGradient id="paint2_linear_1166_26614" x1="90.1219" y1="277.038" x2="90.1219" y2="233.994" gradientUnits="userSpaceOnUse">
<stop stop-color="#9F0000"/>
<stop offset="0.14" stop-color="#953535"/>
<stop offset="0.37" stop-color="#D86868"/>
<stop offset="0.66" stop-color="#B23333"/>
<stop offset="0.79" stop-color="#B54A4A"/>
<stop offset="1" stop-color="#320C0C"/>
</linearGradient>
<linearGradient id="paint3_linear_1166_26614" x1="90.1232" y1="-125.302" x2="90.1232" y2="217.479" gradientUnits="userSpaceOnUse">
<stop stop-color="#A10000"/>
<stop offset="0.14" stop-color="#953D3D"/>
<stop offset="0.4" stop-color="#4B2626"/>
<stop offset="0.75" stop-color="#822727"/>
<stop offset="1" stop-color="#5F2525"/>
</linearGradient>
<linearGradient id="paint4_linear_1166_26614" x1="90.123" y1="-99.2485" x2="90.123" y2="170.744" gradientUnits="userSpaceOnUse">
<stop stop-color="white"/>
<stop offset="0.18" stop-color="white" stop-opacity="0.64"/>
<stop offset="0.59" stop-color="white" stop-opacity="0.1369"/>
<stop offset="0.87" stop-color="white" stop-opacity="0.01"/>
<stop offset="1" stop-color="white" stop-opacity="0"/>
</linearGradient>
<linearGradient id="paint5_linear_1166_26614" x1="90.1237" y1="-8.71345" x2="90.1237" y2="195.458" gradientUnits="userSpaceOnUse">
<stop stop-color="#A10000"/>
<stop offset="0.14" stop-color="#D37272"/>
<stop offset="0.37" stop-color="#A65F5F"/>
<stop offset="0.66" stop-color="#A56161"/>
<stop offset="0.79" stop-color="#9E5050"/>
<stop offset="1" stop-color="#A10000"/>
</linearGradient>
<linearGradient id="paint6_linear_1166_26614" x1="90.1224" y1="-18.2791" x2="90.1224" y2="207.277" gradientUnits="userSpaceOnUse">
<stop stop-color="white"/>
<stop offset="0.16" stop-color="#FAF6F6"/>
<stop offset="0.41" stop-color="#ECDDDD"/>
<stop offset="0.74" stop-color="#D6B6B6"/>
<stop offset="1" stop-color="#C29191"/>
</linearGradient>
<linearGradient id="paint7_linear_1166_26614" x1="90.1221" y1="20.8154" x2="90.1221" y2="125.654" gradientUnits="userSpaceOnUse">
<stop stop-color="white"/>
<stop offset="0.18" stop-color="white" stop-opacity="0.64"/>
<stop offset="0.59" stop-color="white" stop-opacity="0.1369"/>
<stop offset="0.87" stop-color="white" stop-opacity="0.01"/>
<stop offset="1" stop-color="white" stop-opacity="0"/>
</linearGradient>
</defs>
</svg>
