<svg width="36" height="36" viewBox="0 0 36 36" fill="none" xmlns="http://www.w3.org/2000/svg">
<rect x="1" y="1" width="34" height="34" rx="17" stroke="#D70404" stroke-width="2"/>
<rect x="3.5" y="3.5" width="29" height="29" rx="14.5" fill="#D70404"/>
<rect x="3.5" y="3.5" width="29" height="29" rx="14.5" stroke="white" stroke-width="3"/>
<path d="M19.2058 13.1992H11.9958C11.3358 13.1992 10.8008 13.7342 10.8008 14.3942V21.6042C10.8008 22.2642 11.3358 22.7992 11.9958 22.7992H19.2058C19.8658 22.7992 20.4008 22.2642 20.4008 21.6042V14.3942C20.4008 13.7342 19.8658 13.1992 19.2058 13.1992ZM23.9408 14.1417L21.2008 16.0317V19.9667L23.9408 21.8542C24.4708 22.2192 25.2008 21.8467 25.2008 21.2092V14.7867C25.2008 14.1517 24.4733 13.7767 23.9408 14.1417Z" fill="white"/>
</svg>
