<svg width="24" height="24" viewBox="0 0 24 24" fill="none" xmlns="http://www.w3.org/2000/svg">
<path d="M15.5 14H14.71L14.43 13.73C15.41 12.59 16 11.11 16 9.5C16 5.91 13.09 3 9.5 3C5.91 3 3 5.91 3 9.5C3 13.09 5.91 16 9.5 16C11.11 16 12.59 15.41 13.73 14.43L14 14.71V15.5L19 20.49L20.49 19L15.5 14ZM9.5 14C7.01 14 5 11.99 5 9.5C5 7.01 7.01 5 9.5 5C11.99 5 14 7.01 14 9.5C14 11.99 11.99 14 9.5 14Z" fill="#0866FF"/>
<path d="M19.7754 20.55L13.2754 14.075C12.7754 14.5083 12.1962 14.8458 11.5379 15.0875C10.8796 15.3292 10.1921 15.45 9.47539 15.45C7.77539 15.45 6.33789 14.8625 5.16289 13.6875C3.98789 12.5125 3.40039 11.0833 3.40039 9.4C3.40039 7.73333 3.98789 6.3125 5.16289 5.1375C6.33789 3.9625 7.76706 3.375 9.45039 3.375C11.1337 3.375 12.5629 3.9625 13.7379 5.1375C14.9129 6.3125 15.5004 7.73333 15.5004 9.4C15.5004 10.1 15.3796 10.7833 15.1379 11.45C14.8962 12.1167 14.5504 12.7167 14.1004 13.25L20.6004 19.725L19.7754 20.55ZM9.47539 14.325C10.8254 14.325 11.9754 13.8458 12.9254 12.8875C13.8754 11.9292 14.3504 10.7667 14.3504 9.4C14.3504 8.03333 13.8754 6.875 12.9254 5.925C11.9754 4.975 10.8254 4.5 9.47539 4.5C8.09206 4.5 6.92539 4.975 5.97539 5.925C5.02539 6.875 4.55039 8.03333 4.55039 9.4C4.55039 10.7667 5.02539 11.9292 5.97539 12.8875C6.92539 13.8458 8.09206 14.325 9.47539 14.325Z" fill="#0866FF"/>
</svg>
