<svg width="18" height="18" viewBox="0 0 18 18" fill="none" xmlns="http://www.w3.org/2000/svg">
<path d="M13.5 16.5C12.875 16.5 12.3437 16.2812 11.9062 15.8438C11.4688 15.4063 11.25 14.875 11.25 14.25C11.25 14.1625 11.2562 14.0717 11.2687 13.9777C11.2812 13.8837 11.3 13.7995 11.325 13.725L6.0375 10.65C5.825 10.8375 5.5875 10.9845 5.325 11.091C5.0625 11.1975 4.7875 11.2505 4.5 11.25C3.875 11.25 3.34375 11.0312 2.90625 10.5938C2.46875 10.1563 2.25 9.625 2.25 9C2.25 8.375 2.46875 7.84375 2.90625 7.40625C3.34375 6.96875 3.875 6.75 4.5 6.75C4.7875 6.75 5.0625 6.80325 5.325 6.90975C5.5875 7.01625 5.825 7.163 6.0375 7.35L11.325 4.275C11.3 4.2 11.2812 4.11575 11.2687 4.02225C11.2562 3.92875 11.25 3.838 11.25 3.75C11.25 3.125 11.4688 2.59375 11.9062 2.15625C12.3437 1.71875 12.875 1.5 13.5 1.5C14.125 1.5 14.6563 1.71875 15.0938 2.15625C15.5312 2.59375 15.75 3.125 15.75 3.75C15.75 4.375 15.5312 4.90625 15.0938 5.34375C14.6563 5.78125 14.125 6 13.5 6C13.2125 6 12.9375 5.947 12.675 5.841C12.4125 5.735 12.175 5.588 11.9625 5.4L6.675 8.475C6.7 8.55 6.71875 8.6345 6.73125 8.7285C6.74375 8.8225 6.75 8.913 6.75 9C6.75 9.087 6.74375 9.17775 6.73125 9.27225C6.71875 9.36675 6.7 9.451 6.675 9.525L11.9625 12.6C12.175 12.4125 12.4125 12.2657 12.675 12.1597C12.9375 12.0537 13.2125 12.0005 13.5 12C14.125 12 14.6563 12.2188 15.0938 12.6562C15.5312 13.0937 15.75 13.625 15.75 14.25C15.75 14.875 15.5312 15.4063 15.0938 15.8438C14.6563 16.2812 14.125 16.5 13.5 16.5ZM13.5 4.5C13.7125 4.5 13.8907 4.42825 14.0347 4.28475C14.1787 4.14125 14.2505 3.963 14.25 3.75C14.2495 3.537 14.1775 3.359 14.034 3.216C13.8905 3.073 13.7125 3.001 13.5 3C13.2875 2.999 13.1095 3.071 12.966 3.216C12.8225 3.361 12.7505 3.539 12.75 3.75C12.7495 3.961 12.8215 4.13925 12.966 4.28475C13.1105 4.43025 13.2885 4.502 13.5 4.5ZM4.5 9.75C4.7125 9.75 4.89075 9.678 5.03475 9.534C5.17875 9.39 5.2505 9.212 5.25 9C5.2495 8.788 5.1775 8.61 5.034 8.466C4.8905 8.322 4.7125 8.25 4.5 8.25C4.2875 8.25 4.1095 8.322 3.966 8.466C3.8225 8.61 3.7505 8.788 3.75 9C3.7495 9.212 3.8215 9.39025 3.966 9.53475C4.1105 9.67925 4.2885 9.751 4.5 9.75ZM13.5 15C13.7125 15 13.8907 14.928 14.0347 14.784C14.1787 14.64 14.2505 14.462 14.25 14.25C14.2495 14.038 14.1775 13.86 14.034 13.716C13.8905 13.572 13.7125 13.5 13.5 13.5C13.2875 13.5 13.1095 13.572 12.966 13.716C12.8225 13.86 12.7505 14.038 12.75 14.25C12.7495 14.462 12.8215 14.6402 12.966 14.7847C13.1105 14.9292 13.2885 15.001 13.5 15Z" fill="black"/>
</svg>
