<svg width="160" height="262" viewBox="0 0 160 262" fill="none" xmlns="http://www.w3.org/2000/svg">
<path d="M143.074 250.319L16.4991 250.242C15.8884 250.242 16.4303 249.029 16.8346 248.375L19.828 243.549C20.1893 242.964 20.9376 242.5 21.5054 242.5H138.102C138.67 242.5 139.418 242.964 139.78 243.549L142.773 248.375C143.177 249.02 143.693 250.31 143.091 250.31L143.074 250.319Z" fill="url(#paint0_linear_1166_28687)"/>
<path d="M141.99 248.885H17.6088C16.7775 248.885 16.1035 249.559 16.1035 250.39V260.394C16.1035 261.225 16.7775 261.899 17.6088 261.899H141.99C142.822 261.899 143.496 261.225 143.496 260.394V250.39C143.496 249.559 142.822 248.885 141.99 248.885Z" fill="url(#paint1_linear_1166_28687)"/>
<path d="M123.529 220.283H36.0664V244.824H123.529V220.283Z" fill="url(#paint2_linear_1166_28687)"/>
<g style="mix-blend-mode:multiply">
<path d="M123.529 220.283H36.0664V235.56H123.529V220.283Z" fill="#D1D1D1"/>
</g>
<path d="M10.4167 224.816C4.67076 224.816 0 220.567 0 215.337V9.47915C0 4.24927 4.67076 0 10.4167 0H149.18C154.926 0 159.597 4.24927 159.597 9.47915V215.337C159.597 220.567 154.926 224.816 149.18 224.816H10.4167Z" fill="url(#paint3_linear_1166_28687)"/>
<path d="M10.4171 223.096C5.61731 223.096 1.7207 219.612 1.7207 215.337V9.4795C1.7207 5.20442 5.62591 1.7207 10.4171 1.7207H149.181C153.981 1.7207 157.877 5.20442 157.877 9.4795V215.337C157.877 219.612 153.972 223.096 149.181 223.096H10.4171Z" fill="#00A14C"/>
<path style="mix-blend-mode:overlay" opacity="0.74" d="M38.9476 134.204C52.2631 120.888 65.5786 107.581 78.9028 94.2741C92.1667 81.0188 105.439 67.7721 118.712 54.534C131.184 42.0872 143.665 29.649 156.155 17.2109V9.4779C156.155 6.14901 153.024 3.43945 149.179 3.43945H10.4155C6.5705 3.43945 3.43945 6.14901 3.43945 9.4779V169.703C15.2755 157.867 27.1115 146.031 38.9476 134.204Z" fill="url(#paint4_linear_1166_28687)"/>
<path d="M13.9436 214.494C11.948 214.494 10.3223 212.868 10.3223 210.873V13.849C10.3223 11.8964 11.905 10.3223 13.849 10.3223H145.654C147.641 10.3223 149.275 11.948 149.275 13.9436V210.873C149.275 212.868 147.658 214.494 145.654 214.494H13.9436Z" fill="url(#paint5_linear_1166_28687)"/>
<g filter="url(#filter0_d_1166_28687)">
<path d="M13.9432 211.913C13.3754 211.913 12.9023 211.44 12.9023 210.872V13.8485C12.9023 13.3238 13.3238 12.9023 13.8485 12.9023H145.653C146.221 12.9023 146.694 13.3754 146.694 13.9432V210.872C146.694 211.448 146.23 211.913 145.653 211.913H13.9432Z" fill="url(#paint6_linear_1166_28687)"/>
</g>
<path d="M55.0149 92.0899C54.9703 91.6398 54.7787 91.2902 54.4402 91.041C54.1017 90.7917 53.6424 90.6671 53.0621 90.6671C52.6678 90.6671 52.3349 90.7229 52.0634 90.8345C51.7918 90.9424 51.5835 91.093 51.4384 91.2865C51.2971 91.4799 51.2264 91.6994 51.2264 91.9449C51.219 92.1494 51.2618 92.328 51.3547 92.4805C51.4515 92.633 51.5835 92.765 51.7509 92.8766C51.9183 92.9845 52.1117 93.0794 52.3312 93.1612C52.5506 93.2393 52.785 93.3063 53.0342 93.3621L54.0608 93.6076C54.5593 93.7191 55.0168 93.8679 55.4334 94.0539C55.85 94.2399 56.2108 94.4687 56.5158 94.7402C56.8208 95.0117 57.057 95.3316 57.2244 95.6999C57.3955 96.0681 57.4829 96.4903 57.4867 96.9664C57.4829 97.6657 57.3044 98.2721 56.951 98.7854C56.6014 99.295 56.0955 99.6911 55.4334 99.9738C54.775 100.253 53.9809 100.392 53.0509 100.392C52.1284 100.392 51.325 100.251 50.6406 99.9682C49.9599 99.6855 49.4279 99.2671 49.0448 98.7128C48.6654 98.1549 48.4664 97.4649 48.4478 96.6428H50.7856C50.8117 97.026 50.9214 97.3458 51.1148 97.6025C51.312 97.8554 51.5742 98.047 51.9015 98.1772C52.2326 98.3037 52.6064 98.3669 53.023 98.3669C53.4322 98.3669 53.7874 98.3074 54.0887 98.1884C54.3937 98.0693 54.6299 97.9038 54.7973 97.6918C54.9647 97.4798 55.0484 97.2361 55.0484 96.9609C55.0484 96.7042 54.9721 96.4885 54.8196 96.3136C54.6709 96.1388 54.4514 95.99 54.1613 95.8673C53.8748 95.7445 53.5233 95.6329 53.1067 95.5325L51.8625 95.22C50.8991 94.9857 50.1384 94.6193 49.5805 94.1209C49.0225 93.6224 48.7454 92.951 48.7491 92.1067C48.7454 91.4148 48.9295 90.8103 49.3015 90.2933C49.6772 89.7763 50.1923 89.3727 50.847 89.0826C51.5017 88.7924 52.2456 88.6473 53.0788 88.6473C53.9269 88.6473 54.6671 88.7924 55.2995 89.0826C55.9355 89.3727 56.4303 89.7763 56.7836 90.2933C57.137 90.8103 57.3193 91.4092 57.3304 92.0899H55.0149ZM62.9393 100.398C62.0726 100.398 61.3231 100.214 60.6907 99.8455C60.0621 99.4735 59.5767 98.9565 59.2345 98.2944C58.8922 97.6285 58.7211 96.8567 58.7211 95.9789C58.7211 95.0936 58.8922 94.3199 59.2345 93.6578C59.5767 92.9919 60.0621 92.4749 60.6907 92.1067C61.3231 91.7347 62.0726 91.5487 62.9393 91.5487C63.806 91.5487 64.5536 91.7347 65.1822 92.1067C65.8146 92.4749 66.3019 92.9919 66.6441 93.6578C66.9863 94.3199 67.1574 95.0936 67.1574 95.9789C67.1574 96.8567 66.9863 97.6285 66.6441 98.2944C66.3019 98.9565 65.8146 99.4735 65.1822 99.8455C64.5536 100.214 63.806 100.398 62.9393 100.398ZM62.9504 98.5566C63.3447 98.5566 63.6739 98.445 63.938 98.2218C64.2021 97.9949 64.4011 97.6862 64.535 97.2956C64.6726 96.9051 64.7415 96.4606 64.7415 95.9621C64.7415 95.4637 64.6726 95.0192 64.535 94.6286C64.4011 94.238 64.2021 93.9293 63.938 93.7024C63.6739 93.4755 63.3447 93.3621 62.9504 93.3621C62.5524 93.3621 62.2176 93.4755 61.9461 93.7024C61.6783 93.9293 61.4756 94.238 61.3379 94.6286C61.204 95.0192 61.1371 95.4637 61.1371 95.9621C61.1371 96.4606 61.204 96.9051 61.3379 97.2956C61.4756 97.6862 61.6783 97.9949 61.9461 98.2218C62.2176 98.445 62.5524 98.5566 62.9504 98.5566ZM71.0798 88.8036V100.23H68.7029V88.8036H71.0798ZM78.4797 96.5815V91.6603H80.8566V100.23H78.5745V98.6738H78.4853C78.2918 99.1759 77.9701 99.5795 77.52 99.8845C77.0736 100.19 76.5287 100.342 75.8852 100.342C75.3124 100.342 74.8083 100.212 74.3731 99.9515C73.9379 99.6911 73.5976 99.321 73.3521 98.8412C73.1103 98.3613 72.9875 97.7866 72.9838 97.1171V91.6603H75.3607V96.693C75.3644 97.1989 75.5002 97.5988 75.768 97.8926C76.0358 98.1865 76.3948 98.3334 76.8449 98.3334C77.1313 98.3334 77.3991 98.2683 77.6483 98.1381C77.8975 98.0042 78.0984 97.8071 78.2509 97.5467C78.4071 97.2863 78.4834 96.9646 78.4797 96.5815ZM87.3163 91.6603V93.4458H82.1552V91.6603H87.3163ZM83.3269 89.607H85.7038V97.5969C85.7038 97.8164 85.7373 97.9875 85.8042 98.1102C85.8712 98.2293 85.9642 98.313 86.0832 98.3613C86.2059 98.4097 86.3473 98.4339 86.5072 98.4339C86.6188 98.4339 86.7304 98.4246 86.842 98.406C86.9536 98.3836 87.0392 98.3669 87.0987 98.3557L87.4725 100.124C87.3535 100.162 87.1861 100.204 86.9703 100.253C86.7546 100.305 86.4924 100.336 86.1836 100.348C85.6108 100.37 85.1086 100.294 84.6771 100.119C84.2494 99.9441 83.9165 99.6725 83.6784 99.3043C83.4404 98.936 83.3232 98.4711 83.3269 97.9094V89.607ZM88.8646 100.23V91.6603H91.2415V100.23H88.8646ZM90.0586 90.5555C89.7052 90.5555 89.4021 90.4384 89.1491 90.204C88.8999 89.966 88.7753 89.6814 88.7753 89.3504C88.7753 89.023 88.8999 88.7422 89.1491 88.5079C89.4021 88.2698 89.7052 88.1508 90.0586 88.1508C90.412 88.1508 90.7133 88.2698 90.9625 88.5079C91.2154 88.7422 91.3419 89.023 91.3419 89.3504C91.3419 89.6814 91.2154 89.966 90.9625 90.204C90.7133 90.4384 90.412 90.5555 90.0586 90.5555ZM97.0177 100.398C96.151 100.398 95.4015 100.214 94.7691 99.8455C94.1405 99.4735 93.6551 98.9565 93.3129 98.2944C92.9707 97.6285 92.7996 96.8567 92.7996 95.9789C92.7996 95.0936 92.9707 94.3199 93.3129 93.6578C93.6551 92.9919 94.1405 92.4749 94.7691 92.1067C95.4015 91.7347 96.151 91.5487 97.0177 91.5487C97.8844 91.5487 98.632 91.7347 99.2607 92.1067C99.893 92.4749 100.38 92.9919 100.723 93.6578C101.065 94.3199 101.236 95.0936 101.236 95.9789C101.236 96.8567 101.065 97.6285 100.723 98.2944C100.38 98.9565 99.893 99.4735 99.2607 99.8455C98.632 100.214 97.8844 100.398 97.0177 100.398ZM97.0288 98.5566C97.4231 98.5566 97.7523 98.445 98.0164 98.2218C98.2805 97.9949 98.4795 97.6862 98.6134 97.2956C98.7511 96.9051 98.8199 96.4606 98.8199 95.9621C98.8199 95.4637 98.7511 95.0192 98.6134 94.6286C98.4795 94.238 98.2805 93.9293 98.0164 93.7024C97.7523 93.4755 97.4231 93.3621 97.0288 93.3621C96.6308 93.3621 96.2961 93.4755 96.0245 93.7024C95.7567 93.9293 95.554 94.238 95.4164 94.6286C95.2825 95.0192 95.2155 95.4637 95.2155 95.9621C95.2155 96.4606 95.2825 96.9051 95.4164 97.2956C95.554 97.6862 95.7567 97.9949 96.0245 98.2218C96.2961 98.445 96.6308 98.5566 97.0288 98.5566ZM105.158 95.2758V100.23H102.781V91.6603H105.047V93.1724H105.147C105.337 92.6739 105.655 92.2796 106.101 91.9895C106.548 91.6956 107.089 91.5487 107.725 91.5487C108.32 91.5487 108.839 91.6789 109.282 91.9393C109.724 92.1997 110.068 92.5716 110.314 93.0552C110.559 93.535 110.682 94.1079 110.682 94.7737V100.23H108.305V95.1977C108.309 94.6732 108.175 94.2641 107.903 93.9702C107.632 93.6727 107.258 93.5239 106.782 93.5239C106.462 93.5239 106.179 93.5927 105.934 93.7303C105.692 93.8679 105.502 94.0688 105.365 94.3329C105.231 94.5933 105.162 94.9076 105.158 95.2758Z" fill="#1E1E1E"/>
<path d="M16.4297 116.45C16.4297 113.558 18.7745 111.213 21.667 111.213H137.761C140.654 111.213 142.998 113.558 142.998 116.45V137.959C142.998 140.851 140.654 143.196 137.761 143.196H21.667C18.7745 143.196 16.4297 140.851 16.4297 137.959V116.45Z" fill="white" fill-opacity="0.8"/>
<path d="M45.3802 134.705V119.469H55.468V122.125H48.6015V125.755H54.7985V128.411H48.6015V134.705H45.3802ZM57.5752 134.705V123.278H60.7444V134.705H57.5752ZM59.1673 121.805C58.6961 121.805 58.2919 121.649 57.9546 121.337C57.6224 121.019 57.4562 120.64 57.4562 120.198C57.4562 119.762 57.6224 119.387 57.9546 119.075C58.2919 118.758 58.6961 118.599 59.1673 118.599C59.6384 118.599 60.0402 118.758 60.3724 119.075C60.7097 119.387 60.8783 119.762 60.8783 120.198C60.8783 120.64 60.7097 121.019 60.3724 121.337C60.0402 121.649 59.6384 121.805 59.1673 121.805ZM65.9315 123.278L68.0294 127.273L70.1794 123.278H73.4304L70.1199 128.992L73.5197 134.705H70.2836L68.0294 130.755L65.8125 134.705H62.5392L65.9315 128.992L62.6582 123.278H65.9315ZM93.6637 124.803H90.4052C90.3457 124.382 90.2242 124.007 90.0407 123.68C89.8572 123.348 89.6216 123.065 89.334 122.832C89.0463 122.599 88.714 122.42 88.3371 122.296C87.9651 122.172 87.5609 122.11 87.1245 122.11C86.3359 122.11 85.649 122.306 85.0638 122.698C84.4785 123.085 84.0247 123.65 83.7024 124.394C83.38 125.133 83.2188 126.031 83.2188 127.087C83.2188 128.173 83.38 129.086 83.7024 129.825C84.0297 130.564 84.486 131.122 85.0712 131.499C85.6564 131.876 86.3334 132.064 87.1022 132.064C87.5336 132.064 87.9329 132.007 88.2999 131.893C88.6719 131.779 89.0017 131.613 89.2893 131.395C89.577 131.171 89.8151 130.901 90.0035 130.584C90.1969 130.266 90.3308 129.904 90.4052 129.498L93.6637 129.512C93.5794 130.212 93.3686 130.886 93.0313 131.536C92.6991 132.181 92.2502 132.758 91.6848 133.269C91.1244 133.775 90.4548 134.177 89.6762 134.474C88.9025 134.767 88.0271 134.913 87.0501 134.913C85.6912 134.913 84.4761 134.606 83.4048 133.991C82.3385 133.376 81.4953 132.486 80.8754 131.32C80.2604 130.155 79.9529 128.744 79.9529 127.087C79.9529 125.426 80.2654 124.012 80.8903 122.847C81.5152 121.681 82.3633 120.793 83.4345 120.183C84.5058 119.568 85.711 119.261 87.0501 119.261C87.9329 119.261 88.7512 119.385 89.5051 119.633C90.2639 119.881 90.9359 120.243 91.5211 120.719C92.1064 121.19 92.5825 121.768 92.9495 122.452C93.3215 123.137 93.5595 123.92 93.6637 124.803ZM99.1726 134.921C98.4435 134.921 97.7938 134.794 97.2234 134.541C96.6531 134.284 96.2018 133.904 95.8695 133.403C95.5421 132.897 95.3785 132.267 95.3785 131.514C95.3785 130.879 95.495 130.346 95.7281 129.914C95.9612 129.483 96.2786 129.135 96.6804 128.873C97.0821 128.61 97.5384 128.411 98.0492 128.277C98.565 128.144 99.1056 128.049 99.671 127.995C100.336 127.925 100.871 127.861 101.278 127.801C101.685 127.737 101.98 127.643 102.163 127.519C102.347 127.395 102.438 127.211 102.438 126.968V126.923C102.438 126.452 102.29 126.088 101.992 125.83C101.699 125.572 101.283 125.443 100.742 125.443C100.172 125.443 99.7181 125.57 99.3809 125.822C99.0436 126.07 98.8204 126.383 98.7113 126.76L95.7802 126.522C95.929 125.827 96.2216 125.227 96.658 124.721C97.0945 124.211 97.6574 123.819 98.3468 123.546C99.0411 123.268 99.8446 123.129 100.757 123.129C101.392 123.129 102 123.204 102.58 123.353C103.165 123.501 103.683 123.732 104.135 124.044C104.591 124.357 104.95 124.759 105.213 125.25C105.476 125.736 105.608 126.318 105.608 126.998V134.705H102.602V133.12H102.513C102.329 133.478 102.084 133.793 101.776 134.065C101.469 134.333 101.099 134.544 100.668 134.698C100.236 134.846 99.7379 134.921 99.1726 134.921ZM100.08 132.734C100.546 132.734 100.958 132.642 101.315 132.458C101.672 132.27 101.952 132.017 102.156 131.7C102.359 131.382 102.461 131.023 102.461 130.621V129.408C102.362 129.473 102.225 129.532 102.052 129.587C101.883 129.636 101.692 129.683 101.479 129.728C101.266 129.768 101.052 129.805 100.839 129.84C100.626 129.869 100.432 129.897 100.259 129.922C99.8867 129.976 99.5619 130.063 99.2841 130.182C99.0064 130.301 98.7907 130.462 98.6369 130.665C98.4832 130.864 98.4063 131.112 98.4063 131.409C98.4063 131.841 98.5625 132.171 98.875 132.399C99.1924 132.622 99.5941 132.734 100.08 132.734ZM108.066 134.705V123.278H111.139V125.272H111.258C111.466 124.563 111.816 124.027 112.307 123.665C112.798 123.298 113.363 123.115 114.003 123.115C114.162 123.115 114.333 123.124 114.516 123.144C114.7 123.164 114.861 123.191 115 123.226V126.038C114.851 125.994 114.645 125.954 114.382 125.919C114.12 125.884 113.879 125.867 113.661 125.867C113.195 125.867 112.778 125.969 112.411 126.172C112.049 126.37 111.761 126.648 111.548 127.005C111.34 127.362 111.236 127.774 111.236 128.24V134.705H108.066Z" fill="#00A14C"/>
<path style="mix-blend-mode:overlay" d="M35.4814 143.692L85.5695 93.6036C102.197 76.9764 118.824 60.3491 135.46 43.7133L139.812 39.3608V19.7832H19.7832V159.39C25.0131 154.16 30.2516 148.922 35.4814 143.692Z" fill="url(#paint7_linear_1166_28687)"/>
<defs>
<filter id="filter0_d_1166_28687" x="8.90234" y="12.9023" width="141.791" height="207.01" filterUnits="userSpaceOnUse" color-interpolation-filters="sRGB">
<feFlood flood-opacity="0" result="BackgroundImageFix"/>
<feColorMatrix in="SourceAlpha" type="matrix" values="0 0 0 0 0 0 0 0 0 0 0 0 0 0 0 0 0 0 127 0" result="hardAlpha"/>
<feOffset dy="4"/>
<feGaussianBlur stdDeviation="2"/>
<feComposite in2="hardAlpha" operator="out"/>
<feColorMatrix type="matrix" values="0 0 0 0 0 0 0 0 0 0 0 0 0 0 0 0 0 0 0.25 0"/>
<feBlend mode="normal" in2="BackgroundImageFix" result="effect1_dropShadow_1166_28687"/>
<feBlend mode="normal" in="SourceGraphic" in2="effect1_dropShadow_1166_28687" result="shape"/>
</filter>
<linearGradient id="paint0_linear_1166_28687" x1="79.7909" y1="267.712" x2="79.7909" y2="257.321" gradientUnits="userSpaceOnUse">
<stop stop-color="#00A14C"/>
<stop offset="0.41" stop-color="#369A65"/>
<stop offset="1" stop-color="#427F5F"/>
</linearGradient>
<linearGradient id="paint1_linear_1166_28687" x1="79.7996" y1="261.237" x2="79.7996" y2="243.93" gradientUnits="userSpaceOnUse">
<stop stop-color="#00A14C"/>
<stop offset="0.21" stop-color="#4EAB7A"/>
<stop offset="0.57" stop-color="#30BA71"/>
<stop offset="0.61" stop-color="#415A4D"/>
</linearGradient>
<linearGradient id="paint2_linear_1166_28687" x1="79.7978" y1="277.038" x2="79.7978" y2="233.994" gradientUnits="userSpaceOnUse">
<stop stop-color="#00A14C"/>
<stop offset="0.14" stop-color="#3A9F6A"/>
<stop offset="0.37" stop-color="#68D89D"/>
<stop offset="0.66" stop-color="#33B26F"/>
<stop offset="0.79" stop-color="#4AB57D"/>
<stop offset="1" stop-color="#0C321E"/>
</linearGradient>
<linearGradient id="paint3_linear_1166_28687" x1="79.7986" y1="-125.302" x2="79.7986" y2="217.479" gradientUnits="userSpaceOnUse">
<stop stop-color="#00A14C"/>
<stop offset="0.14" stop-color="#3D9566"/>
<stop offset="0.4" stop-color="#264B38"/>
<stop offset="0.75" stop-color="#278252"/>
<stop offset="1" stop-color="#255F41"/>
</linearGradient>
<linearGradient id="paint4_linear_1166_28687" x1="79.7974" y1="-99.2485" x2="79.7974" y2="170.744" gradientUnits="userSpaceOnUse">
<stop stop-color="white"/>
<stop offset="0.18" stop-color="white" stop-opacity="0.64"/>
<stop offset="0.59" stop-color="white" stop-opacity="0.1369"/>
<stop offset="0.87" stop-color="white" stop-opacity="0.01"/>
<stop offset="1" stop-color="white" stop-opacity="0"/>
</linearGradient>
<linearGradient id="paint5_linear_1166_28687" x1="79.7988" y1="-8.71345" x2="79.7988" y2="195.458" gradientUnits="userSpaceOnUse">
<stop stop-color="#00A14C"/>
<stop offset="0.14" stop-color="#72D3A0"/>
<stop offset="0.37" stop-color="#5FA681"/>
<stop offset="0.66" stop-color="#61A581"/>
<stop offset="0.79" stop-color="#509E75"/>
<stop offset="1" stop-color="#00A14C"/>
</linearGradient>
<linearGradient id="paint6_linear_1166_28687" x1="79.7983" y1="-18.2791" x2="79.7983" y2="207.277" gradientUnits="userSpaceOnUse">
<stop stop-color="white"/>
<stop offset="0.16" stop-color="#F8FAF6"/>
<stop offset="0.41" stop-color="#DDECDF"/>
<stop offset="0.74" stop-color="#B9D6B6"/>
<stop offset="1" stop-color="#91C296"/>
</linearGradient>
<linearGradient id="paint7_linear_1166_28687" x1="79.7977" y1="20.8154" x2="79.7977" y2="125.654" gradientUnits="userSpaceOnUse">
<stop stop-color="white"/>
<stop offset="0.18" stop-color="white" stop-opacity="0.64"/>
<stop offset="0.59" stop-color="white" stop-opacity="0.1369"/>
<stop offset="0.87" stop-color="white" stop-opacity="0.01"/>
<stop offset="1" stop-color="white" stop-opacity="0"/>
</linearGradient>
</defs>
</svg>
