<svg width="32" height="32" viewBox="0 0 32 32" fill="none" xmlns="http://www.w3.org/2000/svg">
<rect x="0.5" y="0.5" width="31" height="31" rx="15.5" stroke="#E9EAF0"/>
<path d="M15.75 12.5C16.7125 12.5 17.5 11.7125 17.5 10.75C17.5 9.7875 16.7125 9 15.75 9C14.7875 9 14 9.7875 14 10.75C14 11.7125 14.7875 12.5 15.75 12.5ZM15.75 14.25C14.7875 14.25 14 15.0375 14 16C14 16.9625 14.7875 17.75 15.75 17.75C16.7125 17.75 17.5 16.9625 17.5 16C17.5 15.0375 16.7125 14.25 15.75 14.25ZM15.75 19.5C14.7875 19.5 14 20.2875 14 21.25C14 22.2125 14.7875 23 15.75 23C16.7125 23 17.5 22.2125 17.5 21.25C17.5 20.2875 16.7125 19.5 15.75 19.5Z" fill="#27323C"/>
</svg>
