<svg width="33" height="27" viewBox="0 0 33 27" fill="none" xmlns="http://www.w3.org/2000/svg">
<path d="M9.96369 23.7616C8.69606 23.7796 7.41946 23.8246 6.19679 23.42C2.8794 22.3322 0.775687 20.0936 0.146372 16.6504C-0.680727 12.0833 2.07028 7.91187 6.55639 6.75214C6.88004 6.67123 7.21268 6.60829 7.54532 6.57233C7.7431 6.55435 7.833 6.47344 7.88695 6.28465C8.78597 3.33586 10.7009 1.34902 13.6227 0.405047C18.1807 -1.06935 23.1613 1.61873 24.4559 6.2397C24.5278 6.49142 24.6357 6.55435 24.8784 6.59031C28.2678 7.02184 31.2076 9.69194 32.0167 13.0453C33.1764 17.864 30.2186 22.5479 25.3549 23.5998C24.8695 23.7077 24.384 23.7616 23.8895 23.7616C22.7747 23.7616 21.6689 23.7616 20.5542 23.7616C19.8889 23.7616 19.4214 23.3211 19.4124 22.7008C19.4034 22.0625 19.8709 21.613 20.5542 21.604C21.651 21.604 22.7568 21.622 23.8536 21.595C26.7214 21.532 29.1668 19.6261 29.9399 16.8661C30.9738 13.1981 28.6364 9.46718 24.8784 8.77494C24.5278 8.712 24.1682 8.66705 23.8086 8.65806C23.0624 8.64008 22.6399 8.28047 22.514 7.55227C22.3522 6.55435 21.9566 5.64634 21.3633 4.82823C19.8529 2.76048 17.2008 1.7356 14.7645 2.34693C12.0584 3.03019 10.3862 4.75631 9.81984 7.50732C9.64903 8.32542 9.31639 8.63109 8.47131 8.64907C5.2618 8.72998 2.60969 11.1034 2.19614 14.268C1.73764 17.7831 4.14702 21.0016 7.63522 21.5141C8.01281 21.568 8.39939 21.586 8.77698 21.586C9.81085 21.595 10.8447 21.586 11.8786 21.595C12.472 21.595 12.9305 22.0805 12.9305 22.6738C12.9305 23.2672 12.472 23.7436 11.8696 23.7526C11.2403 23.7616 10.602 23.7616 9.96369 23.7616Z" fill="#0866FF"/>
<path d="M15.0965 12.3445C14.0626 13.3784 13.0917 14.3493 12.1207 15.3292C11.9319 15.518 11.7432 15.7158 11.5454 15.8956C11.0869 16.3092 10.4486 16.3002 10.026 15.8776C9.60348 15.4551 9.5855 14.7988 10.017 14.3673C11.8151 12.5603 13.6131 10.7532 15.4291 8.95518C15.8876 8.49668 16.517 8.54163 17.0114 9.03609C18.4139 10.4296 19.8074 11.832 21.2098 13.2345C21.5695 13.5941 21.9291 13.9447 22.2797 14.3044C22.7562 14.7898 22.7652 15.4551 22.3156 15.8956C21.8751 16.3272 21.2278 16.3092 20.7513 15.8417C19.6006 14.6999 18.4588 13.5582 17.2991 12.3894C17.2182 12.5063 17.2542 12.6322 17.2542 12.7491C17.2542 17.1273 17.2542 21.5145 17.2542 25.8927C17.2542 26.4052 16.9575 26.8097 16.49 26.9536C16.0585 27.0884 15.582 26.9266 15.3033 26.54C15.1415 26.3243 15.1055 26.0725 15.1055 25.8118C15.1055 21.4785 15.1055 17.1363 15.1055 12.803C15.0965 12.6771 15.0965 12.5603 15.0965 12.3445Z" fill="#0866FF"/>
</svg>
