<svg width="29" height="29" viewBox="0 0 29 29" fill="none" xmlns="http://www.w3.org/2000/svg">
<rect x="0.334302" y="0.334302" width="28.0814" height="28.0814" rx="14.0407" fill="white"/>
<rect x="0.334302" y="0.334302" width="28.0814" height="28.0814" rx="14.0407" stroke="#E9EAF0" stroke-width="0.668605"/>
<path d="M7.32513 21.4236H8.70799L17.2274 12.892L15.8446 11.5072L7.32513 20.0388V21.4236ZM21.4501 11.4577L17.2521 7.30322L18.635 5.91838C19.0136 5.5392 19.4787 5.34961 20.0302 5.34961C20.5817 5.34961 21.0467 5.5392 21.4254 5.91838L22.8083 7.30322C23.1869 7.6824 23.3844 8.13989 23.4009 8.67569C23.4174 9.21149 23.2363 9.66898 22.8576 10.0482L21.4501 11.4577ZM6.33737 23.4019C6.0575 23.4019 5.82291 23.3071 5.63359 23.1175C5.44427 22.928 5.34961 22.693 5.34961 22.4128V19.6184C5.34961 19.4865 5.3743 19.3587 5.42369 19.2351C5.47308 19.1114 5.54716 19.0001 5.64594 18.9012L15.8199 8.71278L20.0178 12.9167L9.84391 23.1052C9.74514 23.2041 9.63401 23.2783 9.51054 23.3277C9.38707 23.3772 9.25949 23.4019 9.12779 23.4019H6.33737ZM16.536 12.1996L15.8446 11.5072L17.2274 12.892L16.536 12.1996Z" fill="#27323C"/>
</svg>
