<svg width="16" height="16" viewBox="0 0 16 16" fill="none" xmlns="http://www.w3.org/2000/svg">
<path d="M8.0001 12.0476L4.46219 14.184C4.35823 14.2353 4.26174 14.2561 4.17273 14.2464C4.08436 14.236 3.99827 14.2054 3.91445 14.1547C3.82998 14.1028 3.76631 14.0293 3.72342 13.9345C3.68054 13.8396 3.67664 13.736 3.71173 13.6236L4.65322 9.61785L1.53928 6.91813C1.45156 6.84665 1.39373 6.76121 1.3658 6.6618C1.33786 6.56239 1.34403 6.4672 1.38431 6.37623C1.4246 6.28527 1.4782 6.21055 1.54513 6.15207C1.6127 6.09554 1.70367 6.05721 1.81802 6.03706L5.92706 5.6784L7.52935 1.88514C7.57354 1.77793 7.63721 1.70061 7.72038 1.65318C7.80355 1.60575 7.89679 1.58203 8.0001 1.58203C8.10341 1.58203 8.19697 1.60575 8.28079 1.65318C8.36461 1.70061 8.42796 1.77793 8.47084 1.88514L10.0731 5.6784L14.1812 6.03706C14.2962 6.05656 14.3875 6.09522 14.4551 6.15304C14.5226 6.21022 14.5766 6.28462 14.6169 6.37623C14.6565 6.4672 14.6623 6.56239 14.6344 6.6618C14.6065 6.76121 14.5486 6.84665 14.4609 6.91813L11.347 9.61785L12.2885 13.6236C12.3249 13.7347 12.3213 13.838 12.2777 13.9335C12.2342 14.029 12.1702 14.1024 12.0857 14.1538C12.0026 14.2058 11.9165 14.2366 11.8275 14.2464C11.7391 14.2561 11.6429 14.2353 11.539 14.184L8.0001 12.0476Z" fill="#FFCC00"/>
</svg>
