<svg width="25" height="25" viewBox="0 0 25 25" fill="none" xmlns="http://www.w3.org/2000/svg">
<path d="M12.5004 2.07813C14.5281 2.07547 16.4772 2.86234 17.9348 4.27205C19.3923 5.68175 20.2437 7.60353 20.3087 9.63022L20.3129 9.89063V14.1583L21.7504 17.4458C21.8368 17.6439 21.8726 17.8604 21.8545 18.0758C21.8364 18.2912 21.7649 18.4987 21.6466 18.6796C21.5282 18.8604 21.3667 19.009 21.1766 19.1119C20.9865 19.2147 20.7738 19.2686 20.5577 19.2688L15.6254 19.2719C15.6264 20.0854 15.3102 20.8673 14.7439 21.4514C14.1776 22.0354 13.4058 22.3756 12.5926 22.3996C11.7794 22.4236 10.9889 22.1295 10.3891 21.5799C9.78934 21.0303 9.42753 20.2684 9.38059 19.4563L9.37538 19.2688H4.4535C4.23759 19.2688 4.02505 19.2151 3.83504 19.1125C3.64503 19.01 3.4835 18.8618 3.365 18.6813C3.2465 18.5008 3.17474 18.2937 3.15618 18.0786C3.13763 17.8634 3.17286 17.6471 3.25871 17.449L4.68788 14.1594V9.89063C4.68788 5.56251 8.17955 2.07813 12.5004 2.07813ZM14.0629 19.2698L10.9379 19.2719C10.9378 19.6732 11.0922 20.0592 11.369 20.3498C11.6458 20.6405 12.0239 20.8134 12.4248 20.8328C12.8257 20.8522 13.2186 20.7167 13.5223 20.4542C13.8259 20.1917 14.0169 19.8224 14.0556 19.4229L14.0629 19.2698ZM12.5004 3.64063C9.04205 3.64063 6.25038 6.42605 6.25038 9.89063V14.4844L4.85038 17.7073H20.1598L18.7504 14.4854V9.90417L18.7473 9.6698C18.6926 8.05044 18.0102 6.51583 16.8443 5.39061C15.6785 4.2654 14.1207 3.63782 12.5004 3.64063Z" fill="#050505"/>
</svg>
