<svg width="39" height="20" viewBox="0 0 39 20" fill="none" xmlns="http://www.w3.org/2000/svg">
<g clip-path="url(#clip0_929_19825)">
<path d="M19.187 17H14.773C14.136 17 13.681 16.862 13.409 16.585C13.136 16.308 13 15.867 13 15.262V4.738C13 4.121 13.14 3.676 13.419 3.406C13.698 3.136 14.149 3 14.773 3H19.453C20.143 3 20.741 3.041 21.246 3.124C21.752 3.207 22.206 3.366 22.606 3.602C22.947 3.799 23.25 4.049 23.512 4.352C24.0358 4.95012 24.3231 5.71895 24.32 6.514C24.32 7.915 23.598 8.94 22.153 9.589C24.05 10.175 25 11.315 25 13.01C25.0086 13.7561 24.7948 14.4878 24.3859 15.1118C23.977 15.7359 23.3915 16.224 22.704 16.514C22.2166 16.7042 21.7067 16.8309 21.187 16.891C20.616 16.964 19.949 17 19.187 17ZM18.97 10.783H16V14.87H19.069C21.046 14.87 22.034 14.18 22.034 12.798C22.034 12.091 21.778 11.578 21.266 11.261C20.754 10.942 19.989 10.783 18.97 10.783ZM16 5.13V8.749H18.606C19.335 8.749 19.898 8.682 20.296 8.549C20.6863 8.42034 21.0122 8.14641 21.206 7.784C21.371 7.517 21.453 7.218 21.453 6.887C21.453 6.18 21.193 5.711 20.675 5.478C20.156 5.246 19.365 5.13 18.3 5.13H16Z" fill="#333333"/>
</g>
<defs>
<clipPath id="clip0_929_19825">
<rect width="38.8374" height="20" fill="white"/>
</clipPath>
</defs>
</svg>
