<svg width="34" height="34" viewBox="0 0 34 34" fill="none" xmlns="http://www.w3.org/2000/svg">
<path fill-rule="evenodd" clip-rule="evenodd" d="M13.5689 8.07617H13.6334C14.808 8.07616 15.7331 8.07616 16.4558 8.17336C17.1973 8.27307 17.7892 8.48206 18.2545 8.9478C18.7203 9.41311 18.9293 10.0051 19.029 10.7465C19.1151 11.3867 19.1249 12.1857 19.126 13.1762H22.1323C22.9074 13.1762 23.532 13.1762 24.0232 13.2422C24.5332 13.3108 24.9625 13.4576 25.3036 13.7988C25.6447 14.1399 25.7915 14.5691 25.8601 15.0792C25.9262 15.5704 25.9262 16.195 25.9262 16.9701V22.1323C25.9262 22.9074 25.9262 23.532 25.8601 24.0232C25.7915 24.5332 25.6447 24.9625 25.3036 25.3036C24.9625 25.6447 24.5332 25.7915 24.0232 25.8601C23.532 25.9262 22.9074 25.9262 22.1323 25.9262H18.7012C18.4665 25.9262 18.2762 25.7359 18.2762 25.5012V13.6012C18.2762 12.3873 18.2753 11.5194 18.1866 10.8598C18.0995 10.2125 17.935 9.82998 17.6537 9.54901C17.3727 9.26772 16.9899 9.10283 16.3425 9.01577C15.683 8.92708 14.8151 8.92617 13.6012 8.92617C12.3873 8.92617 11.5194 8.92708 10.8598 9.01577C10.2125 9.10283 9.82998 9.26738 9.54901 9.54867C9.26772 9.82964 9.10283 10.2125 9.01577 10.8598C8.92708 11.5194 8.92617 12.3873 8.92617 13.6012V15.3012C8.92617 15.5359 8.73589 15.7262 8.50117 15.7262C8.26645 15.7262 8.07617 15.5359 8.07617 15.3012L8.07617 13.5689C8.07616 12.3944 8.07616 11.4693 8.17336 10.7465C8.27307 10.0051 8.48206 9.41311 8.9478 8.9478C9.41311 8.48206 10.0051 8.27307 10.7465 8.17336C11.4693 8.07616 12.3944 8.07616 13.5689 8.07617ZM19.1262 14.0262V25.0762H22.1012C22.9147 25.0762 23.4819 25.0753 23.9098 25.0177C24.3254 24.9618 24.5456 24.8595 24.7026 24.7026C24.8595 24.5456 24.9618 24.3254 25.0177 23.9098C25.0753 23.4819 25.0762 22.9147 25.0762 22.1012V17.0012C25.0762 16.1876 25.0753 15.6204 25.0177 15.1925C24.9618 14.7769 24.8595 14.5568 24.7026 14.3998C24.5456 14.2428 24.3254 14.1405 23.9098 14.0846C23.4819 14.0271 22.9147 14.0262 22.1012 14.0262H19.1262ZM11.0512 11.9012C11.0512 11.6665 11.2415 11.4762 11.4762 11.4762H12.3262C12.5609 11.4762 12.7512 11.6665 12.7512 11.9012C12.7512 12.1359 12.5609 12.3262 12.3262 12.3262H11.4762C11.2415 12.3262 11.0512 12.1359 11.0512 11.9012ZM14.4512 11.9012C14.4512 11.6665 14.6415 11.4762 14.8762 11.4762H15.7262C15.9609 11.4762 16.1512 11.6665 16.1512 11.9012C16.1512 12.1359 15.9609 12.3262 15.7262 12.3262H14.8762C14.6415 12.3262 14.4512 12.1359 14.4512 11.9012ZM11.0512 14.4512C11.0512 14.2165 11.2415 14.0262 11.4762 14.0262H12.3262C12.5609 14.0262 12.7512 14.2165 12.7512 14.4512C12.7512 14.6859 12.5609 14.8762 12.3262 14.8762H11.4762C11.2415 14.8762 11.0512 14.6859 11.0512 14.4512ZM14.4512 14.4512C14.4512 14.2165 14.6415 14.0262 14.8762 14.0262H15.7262C15.9609 14.0262 16.1512 14.2165 16.1512 14.4512C16.1512 14.6859 15.9609 14.8762 15.7262 14.8762H14.8762C14.6415 14.8762 14.4512 14.6859 14.4512 14.4512ZM21.2512 16.1512C21.2512 15.9165 21.4415 15.7262 21.6762 15.7262H22.5262C22.7609 15.7262 22.9512 15.9165 22.9512 16.1512C22.9512 16.3859 22.7609 16.5762 22.5262 16.5762H21.6762C21.4415 16.5762 21.2512 16.3859 21.2512 16.1512ZM11.9235 17.4251C11.5903 17.4249 11.2702 17.5552 11.0319 17.788C10.7935 18.0209 10.6558 18.3378 10.6482 18.6709C10.6443 18.8407 10.6744 19.0096 10.7366 19.1676C10.7989 19.3256 10.8921 19.4696 11.0108 19.591C11.1295 19.7125 11.2712 19.8091 11.4277 19.875C11.5843 19.941 11.7524 19.975 11.9222 19.9751C12.092 19.9752 12.2602 19.9413 12.4167 19.8755C12.5733 19.8097 12.7152 19.7133 12.834 19.592C12.9528 19.4706 13.0461 19.3267 13.1086 19.1688C13.171 19.0108 13.2012 18.842 13.1975 18.6722C13.1902 18.3391 13.0528 18.022 12.8147 17.7889C12.5766 17.5558 12.2567 17.4252 11.9235 17.4251ZM10.4379 17.18C10.8351 16.7919 11.3685 16.5748 11.9239 16.5751C12.4792 16.5754 13.0124 16.793 13.4093 17.1815C13.8062 17.57 14.0352 18.0984 14.0473 18.6536C14.0535 18.9366 14.0031 19.218 13.899 19.4812C13.795 19.7445 13.6394 19.9843 13.4414 20.1865C13.2434 20.3888 13.007 20.5495 12.746 20.6592C12.4851 20.7688 12.2048 20.8252 11.9218 20.8251C11.6387 20.8249 11.3585 20.7682 11.0977 20.6583C10.8368 20.5484 10.6006 20.3875 10.4028 20.185C10.205 19.9826 10.0496 19.7426 9.94584 19.4793C9.84205 19.2159 9.79191 18.9345 9.79838 18.6515C9.81108 18.0963 10.0406 17.5681 10.4379 17.18ZM21.2512 19.5512C21.2512 19.3165 21.4415 19.1262 21.6762 19.1262H22.5262C22.7609 19.1262 22.9512 19.3165 22.9512 19.5512C22.9512 19.7859 22.7609 19.9762 22.5262 19.9762H21.6762C21.4415 19.9762 21.2512 19.7859 21.2512 19.5512ZM8.96012 24.1463C9.05597 24.2909 9.21645 24.4898 9.40225 24.6675C9.51282 24.7732 9.62262 24.862 9.72223 24.9246C9.82692 24.9903 9.89257 25.0094 9.91962 25.0122C10.1691 25.0389 10.6517 25.0554 11.0942 25.0648C11.3118 25.0694 11.5142 25.0723 11.6651 25.074C11.7405 25.0748 11.8029 25.0754 11.8478 25.0757L11.9012 25.0761L11.9168 25.0761L11.9228 25.0762H11.9237L11.9296 25.0761L11.9448 25.0761L11.9968 25.0757C12.0404 25.0754 12.1011 25.0748 12.1744 25.074C12.3212 25.0723 12.5181 25.0694 12.7302 25.0648C13.1615 25.0554 13.6336 25.0389 13.8843 25.0123C13.9104 25.0095 13.9762 24.9907 14.0808 24.925C14.1802 24.8625 14.29 24.7737 14.4005 24.6679C14.5867 24.4897 14.7473 24.2903 14.8427 24.1459C14.0284 22.9441 12.811 22.504 11.9221 22.5032C11.0291 22.5025 9.77288 22.9475 8.96012 24.1463ZM8.20886 23.7411C9.19684 22.2265 10.7662 21.6523 11.9228 21.6532C13.085 21.6542 14.6124 22.2316 15.5988 23.7479L15.5992 23.7486C15.7189 23.9334 15.7839 24.216 15.6339 24.481C15.5043 24.7111 15.2603 25.0216 14.9883 25.2819C14.8503 25.414 14.6952 25.5428 14.533 25.6447C14.3762 25.7433 14.1831 25.8355 13.9739 25.8575M9.82966 25.8575C9.62051 25.8352 9.42743 25.7431 9.27029 25.6444C9.10798 25.5426 8.9528 25.4138 8.81475 25.2817C8.54236 25.0212 8.29833 24.7109 8.16854 24.4811C8.16577 24.4762 8.16311 24.4713 8.16054 24.4663C8.10106 24.3505 8.07477 24.2205 8.08458 24.0907C8.09407 23.9651 8.13702 23.8444 8.20886 23.7411" fill="#050505"/>
</svg>
