<svg width="24" height="20" viewBox="0 0 24 20" fill="none" xmlns="http://www.w3.org/2000/svg">
<g clip-path="url(#clip0_929_19852)">
<path d="M12.25 5.1875C13.4875 5.1875 14.5 4.175 14.5 2.9375C14.5 1.7 13.4875 0.6875 12.25 0.6875C11.0125 0.6875 10 1.7 10 2.9375C10 4.175 11.0125 5.1875 12.25 5.1875ZM12.25 7.4375C11.0125 7.4375 10 8.45 10 9.6875C10 10.925 11.0125 11.9375 12.25 11.9375C13.4875 11.9375 14.5 10.925 14.5 9.6875C14.5 8.45 13.4875 7.4375 12.25 7.4375ZM12.25 14.1875C11.0125 14.1875 10 15.2 10 16.4375C10 17.675 11.0125 18.6875 12.25 18.6875C13.4875 18.6875 14.5 17.675 14.5 16.4375C14.5 15.2 13.4875 14.1875 12.25 14.1875Z" fill="black"/>
</g>
<defs>
<clipPath id="clip0_929_19852">
<rect width="23.2749" height="20" fill="white"/>
</clipPath>
</defs>
</svg>
