<svg width="18" height="18" viewBox="0 0 18 18" fill="none" xmlns="http://www.w3.org/2000/svg">
<path d="M4.3348 5.7883C4.38719 5.84055 4.42875 5.90263 4.4571 5.97096C4.48546 6.0393 4.50006 6.11256 4.50006 6.18655C4.50006 6.26054 4.48546 6.3338 4.4571 6.40214C4.42875 6.47048 4.38719 6.53255 4.3348 6.5848L3.04443 7.87405H7.31155C7.46074 7.87405 7.60381 7.93332 7.7093 8.0388C7.81479 8.14429 7.87405 8.28737 7.87405 8.43655C7.87405 8.58574 7.81479 8.72881 7.7093 8.8343C7.60381 8.93979 7.46074 8.99905 7.31155 8.99905H3.04443L4.3348 10.2883C4.44043 10.3939 4.49976 10.5372 4.49976 10.6866C4.49976 10.8359 4.44043 10.9792 4.3348 11.0848C4.22918 11.1904 4.08593 11.2498 3.93655 11.2498C3.78718 11.2498 3.64392 11.1904 3.5383 11.0848L1.2883 8.8348C1.23592 8.78255 1.19436 8.72048 1.166 8.65214C1.13764 8.5838 1.12305 8.51054 1.12305 8.43655C1.12305 8.36256 1.13764 8.2893 1.166 8.22096C1.19436 8.15263 1.23592 8.09055 1.2883 8.0383L3.5383 5.7883C3.59055 5.73592 3.65263 5.69436 3.72096 5.666C3.7893 5.63764 3.86256 5.62305 3.93655 5.62305C4.01054 5.62305 4.0838 5.63764 4.15214 5.666C4.22048 5.69436 4.28255 5.73592 4.3348 5.7883ZM13.6633 5.7883C13.7156 5.73592 13.7776 5.69436 13.846 5.666C13.9143 5.63764 13.9876 5.62305 14.0616 5.62305C14.1355 5.62305 14.2088 5.63764 14.2771 5.666C14.3455 5.69436 14.4076 5.73592 14.4598 5.7883L16.7098 8.0383C16.7622 8.09055 16.8037 8.15263 16.8321 8.22096C16.8605 8.2893 16.8751 8.36256 16.8751 8.43655C16.8751 8.51054 16.8605 8.5838 16.8321 8.65214C16.8037 8.72048 16.7622 8.78255 16.7098 8.8348L14.4598 11.0848C14.3542 11.1904 14.2109 11.2498 14.0616 11.2498C13.9122 11.2498 13.7689 11.1904 13.6633 11.0848C13.5577 10.9792 13.4983 10.8359 13.4983 10.6866C13.4983 10.5372 13.5577 10.3939 13.6633 10.2883L14.9537 8.99905H10.6866C10.5374 8.99905 10.3943 8.93979 10.2888 8.8343C10.1833 8.72881 10.1241 8.58574 10.1241 8.43655C10.1241 8.28737 10.1833 8.14429 10.2888 8.0388C10.3943 7.93332 10.5374 7.87405 10.6866 7.87405H14.9537L13.6633 6.5848C13.6109 6.53255 13.5694 6.47048 13.541 6.40214C13.5126 6.3338 13.498 6.26054 13.498 6.18655C13.498 6.11256 13.5126 6.0393 13.541 5.97096C13.5694 5.90263 13.6109 5.84055 13.6633 5.7883Z" fill="#27323C"/>
</svg>
