<svg width="24" height="24" viewBox="0 0 24 24" fill="none" xmlns="http://www.w3.org/2000/svg">
<path d="M8.61777 7.89794C8.61777 8.18365 8.50427 8.45765 8.30225 8.65967C8.10023 8.86169 7.82622 8.97519 7.54052 8.97519C7.25482 8.97519 6.98082 8.86169 6.77879 8.65967C6.57677 8.45765 6.46328 8.18365 6.46328 7.89794C6.46328 7.61224 6.57677 7.33824 6.77879 7.13622C6.98082 6.93419 7.25482 6.8207 7.54052 6.8207C7.82622 6.8207 8.10023 6.93419 8.30225 7.13622C8.50427 7.33824 8.61777 7.61224 8.61777 7.89794ZM8.61777 11.8478C8.61777 12.1335 8.50427 12.4075 8.30225 12.6096C8.10023 12.8116 7.82622 12.9251 7.54052 12.9251C7.25482 12.9251 6.98082 12.8116 6.77879 12.6096C6.57677 12.4075 6.46328 12.1335 6.46328 11.8478C6.46328 11.5621 6.57677 11.2881 6.77879 11.0861C6.98082 10.8841 7.25482 10.7706 7.54052 10.7706C7.82622 10.7706 8.10023 10.8841 8.30225 11.0861C8.50427 11.2881 8.61777 11.5621 8.61777 11.8478ZM7.54052 16.875C7.82622 16.875 8.10023 16.7615 8.30225 16.5595C8.50427 16.3574 8.61777 16.0834 8.61777 15.7977C8.61777 15.512 8.50427 15.238 8.30225 15.036C8.10023 14.834 7.82622 14.7205 7.54052 14.7205C7.25482 14.7205 6.98082 14.834 6.77879 15.036C6.57677 15.238 6.46328 15.512 6.46328 15.7977C6.46328 16.0834 6.57677 16.3574 6.77879 16.5595C6.98082 16.7615 7.25482 16.875 7.54052 16.875ZM10.0541 7.89794C10.0541 7.70747 10.1298 7.52481 10.2644 7.39013C10.3991 7.25544 10.5818 7.17978 10.7723 7.17978H15.7994C15.9899 7.17978 16.1725 7.25544 16.3072 7.39013C16.4419 7.52481 16.5176 7.70747 16.5176 7.89794C16.5176 8.08841 16.4419 8.27108 16.3072 8.40576C16.1725 8.54044 15.9899 8.61611 15.7994 8.61611H10.7723C10.5818 8.61611 10.3991 8.54044 10.2644 8.40576C10.1298 8.27108 10.0541 8.08841 10.0541 7.89794ZM10.7723 11.1297C10.5818 11.1297 10.3991 11.2053 10.2644 11.34C10.1298 11.4747 10.0541 11.6574 10.0541 11.8478C10.0541 12.0383 10.1298 12.221 10.2644 12.3557C10.3991 12.4903 10.5818 12.566 10.7723 12.566H15.7994C15.9899 12.566 16.1725 12.4903 16.3072 12.3557C16.4419 12.221 16.5176 12.0383 16.5176 11.8478C16.5176 11.6574 16.4419 11.4747 16.3072 11.34C16.1725 11.2053 15.9899 11.1297 15.7994 11.1297H10.7723ZM10.0541 15.7977C10.0541 15.6073 10.1298 15.4246 10.2644 15.2899C10.3991 15.1552 10.5818 15.0796 10.7723 15.0796H15.7994C15.9899 15.0796 16.1725 15.1552 16.3072 15.2899C16.4419 15.4246 16.5176 15.6073 16.5176 15.7977C16.5176 15.9882 16.4419 16.1709 16.3072 16.3056C16.1725 16.4402 15.9899 16.5159 15.7994 16.5159H10.7723C10.5818 16.5159 10.3991 16.4402 10.2644 16.3056C10.1298 16.1709 10.0541 15.9882 10.0541 15.7977ZM5.38603 2.51172C4.52892 2.51172 3.70692 2.8522 3.10085 3.45827C2.49478 4.06434 2.1543 4.88634 2.1543 5.74345V17.9522C2.1543 18.8093 2.49478 19.6313 3.10085 20.2374C3.70692 20.8435 4.52892 21.184 5.38603 21.184H17.5948C18.4519 21.184 19.2739 20.8435 19.88 20.2374C20.4861 19.6313 20.8265 18.8093 20.8265 17.9522V5.74345C20.8265 4.88634 20.4861 4.06434 19.88 3.45827C19.2739 2.8522 18.4519 2.51172 17.5948 2.51172H5.38603ZM3.59062 5.74345C3.59062 5.26728 3.77978 4.81061 4.11649 4.47391C4.45319 4.1372 4.90986 3.94805 5.38603 3.94805H17.5948C18.071 3.94805 18.5276 4.1372 18.8644 4.47391C19.2011 4.81061 19.3902 5.26728 19.3902 5.74345V17.9522C19.3902 18.4284 19.2011 18.8851 18.8644 19.2218C18.5276 19.5585 18.071 19.7476 17.5948 19.7476H5.38603C4.90986 19.7476 4.45319 19.5585 4.11649 19.2218C3.77978 18.8851 3.59062 18.4284 3.59062 17.9522V5.74345Z" fill="#0866FF"/>
</svg>
