<svg width="20" height="20" viewBox="0 0 20 20" fill="none" xmlns="http://www.w3.org/2000/svg">
<g clip-path="url(#clip0_929_19845)">
<path d="M7.00128 5.74922C7.00128 6.16322 7.33728 6.49922 7.75128 6.49922H17.2513C17.4502 6.49922 17.641 6.4202 17.7816 6.27955C17.9223 6.1389 18.0013 5.94813 18.0013 5.74922C18.0013 5.55031 17.9223 5.35954 17.7816 5.21889C17.641 5.07824 17.4502 4.99922 17.2513 4.99922H7.75128C7.55237 4.99922 7.3616 5.07824 7.22095 5.21889C7.0803 5.35954 7.00128 5.55031 7.00128 5.74922ZM3.50128 2.99922V7.99922H2.00128V3.69922H1.00128V2.69922H3.50128V2.99922ZM0.344281 17.8562L2.93428 14.5992H2.92128C2.97379 14.508 3.00138 14.4046 3.00128 14.2993C3.00118 14.1941 2.97339 14.0907 2.9207 13.9996C2.86802 13.9084 2.79229 13.8328 2.70111 13.7802C2.60994 13.7276 2.50654 13.6999 2.40128 13.6999C2.29602 13.6999 2.19262 13.7276 2.10145 13.7802C2.01028 13.8328 1.93455 13.9084 1.88186 13.9996C1.82917 14.0907 1.80138 14.1941 1.80128 14.2993C1.80118 14.4046 1.82877 14.508 1.88128 14.5992H0.303281C0.289733 14.3285 0.331356 14.0578 0.425624 13.8037C0.519892 13.5496 0.664837 13.3172 0.851654 13.1208C1.03847 12.9244 1.26326 12.7681 1.51238 12.6612C1.76149 12.5543 2.02972 12.4993 2.30078 12.4993C2.57184 12.4993 2.84008 12.5543 3.08919 12.6612C3.3383 12.7681 3.56309 12.9244 3.74991 13.1208C3.93673 13.3172 4.08167 13.5496 4.17594 13.8037C4.27021 14.0578 4.31183 14.3285 4.29828 14.5992C4.25028 15.0042 4.13728 15.3332 3.96428 15.5872C3.78928 15.8412 3.37428 16.2792 2.72028 16.8992H4.30128V17.8992H0.301281L0.344281 17.8562ZM7.00128 14.7492C7.00128 14.5503 7.0803 14.3595 7.22095 14.2189C7.3616 14.0782 7.55237 13.9992 7.75128 13.9992H17.2513C17.4502 13.9992 17.641 14.0782 17.7816 14.2189C17.9223 14.3595 18.0013 14.5503 18.0013 14.7492C18.0013 14.9481 17.9223 15.1389 17.7816 15.2795C17.641 15.4202 17.4502 15.4992 17.2513 15.4992H7.75128C7.55237 15.4992 7.3616 15.4202 7.22095 15.2795C7.0803 15.1389 7.00128 14.9481 7.00128 14.7492Z" fill="#333333"/>
</g>
<defs>
<clipPath id="clip0_929_19845">
<rect width="20" height="20" fill="white"/>
</clipPath>
</defs>
</svg>
