<svg width="18" height="18" viewBox="0 0 18 18" fill="none" xmlns="http://www.w3.org/2000/svg">
<path fill-rule="evenodd" clip-rule="evenodd" d="M5.97153 1.125H6.02847C7.06483 1.12499 7.88107 1.12499 8.51879 1.21075C9.17303 1.29874 9.69535 1.48314 10.1059 1.89409C10.5169 2.30465 10.7013 2.82697 10.7892 3.48121C10.8652 4.0461 10.8739 4.75106 10.8749 5.625H13.5275C14.2114 5.62499 14.7625 5.62498 15.1959 5.68329C15.6459 5.74383 16.0247 5.87335 16.3257 6.17434C16.6266 6.47532 16.7562 6.85408 16.8167 7.30413C16.875 7.73753 16.875 8.28864 16.875 8.97256V13.5274C16.875 14.2114 16.875 14.7625 16.8167 15.1959C16.7562 15.6459 16.6266 16.0247 16.3257 16.3257C16.0247 16.6266 15.6459 16.7562 15.1959 16.8167C14.7625 16.875 14.2114 16.875 13.5274 16.875H10.5C10.2929 16.875 10.125 16.7071 10.125 16.5V6C10.125 4.9289 10.1242 4.16312 10.0459 3.58117C9.96912 3.00998 9.82393 2.67248 9.57574 2.42457C9.32782 2.17637 8.99002 2.03088 8.41883 1.95406C7.83688 1.8758 7.0711 1.875 6 1.875C4.9289 1.875 4.16312 1.8758 3.58117 1.95406C3.00998 2.03088 2.67248 2.17607 2.42457 2.42426C2.17637 2.67218 2.03088 3.00998 1.95406 3.58117C1.8758 4.16312 1.875 4.9289 1.875 6V7.5C1.875 7.70711 1.70711 7.875 1.5 7.875C1.29289 7.875 1.125 7.70711 1.125 7.5L1.125 5.97153C1.12499 4.93517 1.12499 4.11893 1.21075 3.48121C1.29874 2.82697 1.48314 2.30465 1.89409 1.89409C2.30465 1.48314 2.82697 1.29874 3.48121 1.21075C4.11893 1.12499 4.93517 1.12499 5.97153 1.125ZM10.875 6.375V16.125H13.5C14.2179 16.125 14.7183 16.1242 15.0959 16.0734C15.4626 16.0241 15.6568 15.9339 15.7953 15.7953C15.9339 15.6568 16.0241 15.4626 16.0734 15.0959C16.1242 14.7183 16.125 14.2179 16.125 13.5V9C16.125 8.28214 16.1242 7.78168 16.0734 7.40412C16.0241 7.03742 15.9339 6.84318 15.7953 6.70467C15.6568 6.56615 15.4626 6.47592 15.0959 6.42659C14.7183 6.3758 14.2179 6.375 13.5 6.375H10.875ZM3.75 4.5C3.75 4.29289 3.91789 4.125 4.125 4.125H4.875C5.08211 4.125 5.25 4.29289 5.25 4.5C5.25 4.70711 5.08211 4.875 4.875 4.875H4.125C3.91789 4.875 3.75 4.70711 3.75 4.5ZM6.75 4.5C6.75 4.29289 6.91789 4.125 7.125 4.125H7.875C8.08211 4.125 8.25 4.29289 8.25 4.5C8.25 4.70711 8.08211 4.875 7.875 4.875H7.125C6.91789 4.875 6.75 4.70711 6.75 4.5ZM3.75 6.75C3.75 6.54289 3.91789 6.375 4.125 6.375H4.875C5.08211 6.375 5.25 6.54289 5.25 6.75C5.25 6.95711 5.08211 7.125 4.875 7.125H4.125C3.91789 7.125 3.75 6.95711 3.75 6.75ZM6.75 6.75C6.75 6.54289 6.91789 6.375 7.125 6.375H7.875C8.08211 6.375 8.25 6.54289 8.25 6.75C8.25 6.95711 8.08211 7.125 7.875 7.125H7.125C6.91789 7.125 6.75 6.95711 6.75 6.75ZM12.75 8.25C12.75 8.04289 12.9179 7.875 13.125 7.875H13.875C14.0821 7.875 14.25 8.04289 14.25 8.25C14.25 8.45711 14.0821 8.625 13.875 8.625H13.125C12.9179 8.625 12.75 8.45711 12.75 8.25ZM4.51967 9.37403C4.22566 9.37388 3.94327 9.48884 3.73296 9.6943C3.52264 9.89976 3.40112 10.1794 3.3944 10.4733C3.39098 10.6231 3.41752 10.7721 3.47247 10.9115C3.52741 11.051 3.60966 11.178 3.71438 11.2852C3.8191 11.3924 3.94417 11.4776 4.08227 11.5358C4.22036 11.5939 4.36869 11.624 4.51855 11.624C4.6684 11.6241 4.81676 11.5942 4.95491 11.5362C5.09306 11.4781 5.21823 11.3931 5.32305 11.286C5.42788 11.1789 5.51025 11.0519 5.56534 10.9126C5.62043 10.7732 5.64711 10.6243 5.64384 10.4744C5.63741 10.1805 5.51617 9.90075 5.30606 9.69509C5.09596 9.48942 4.81368 9.37418 4.51967 9.37403ZM3.20886 9.15781C3.55938 8.81538 4.03002 8.62379 4.52005 8.62403C5.01007 8.62428 5.48052 8.81635 5.8307 9.15912C6.18088 9.5019 6.38295 9.96815 6.39366 10.4581C6.39912 10.7078 6.35464 10.956 6.26283 11.1883C6.17101 11.4206 6.03372 11.6321 5.85901 11.8106C5.68431 11.9891 5.4757 12.1309 5.24545 12.2276C5.01519 12.3244 4.76793 12.3742 4.51817 12.374C4.26842 12.3739 4.0212 12.3239 3.79104 12.2269C3.56088 12.1299 3.35242 11.9879 3.17789 11.8093C3.00336 11.6306 2.86628 11.4189 2.7747 11.1865C2.68312 10.9542 2.63889 10.7059 2.6446 10.4562C2.6558 9.96629 2.85834 9.50024 3.20886 9.15781ZM12.75 11.25C12.75 11.0429 12.9179 10.875 13.125 10.875H13.875C14.0821 10.875 14.25 11.0429 14.25 11.25C14.25 11.4571 14.0821 11.625 13.875 11.625H13.125C12.9179 11.625 12.75 11.4571 12.75 11.25ZM1.90496 15.3046C1.98953 15.4322 2.13112 15.6076 2.29507 15.7644C2.39263 15.8577 2.48952 15.936 2.5774 15.9912C2.66978 16.0492 2.7277 16.0661 2.75157 16.0686C2.97173 16.0921 3.39748 16.1066 3.78799 16.115C3.97999 16.1191 4.15859 16.1216 4.29169 16.1231C4.35821 16.1238 4.41328 16.1243 4.45287 16.1246L4.50005 16.1249L4.5138 16.125L4.5191 16.125H4.51989L4.52505 16.125L4.53846 16.1249L4.58438 16.1246C4.62289 16.1243 4.67643 16.1238 4.74112 16.1231C4.87057 16.1216 5.04431 16.1191 5.2315 16.115C5.61207 16.1067 6.02861 16.0921 6.24982 16.0686C6.27286 16.0662 6.33091 16.0496 6.42322 15.9916C6.51094 15.9365 6.60775 15.8581 6.70528 15.7648C6.86958 15.6075 7.01132 15.4316 7.0955 15.3041C6.37699 14.2438 5.30281 13.8554 4.51844 13.8547C3.73056 13.8541 2.6221 14.2467 1.90496 15.3046ZM1.24208 14.947C2.11383 13.6106 3.49857 13.1039 4.51906 13.1047C5.54459 13.1056 6.8923 13.6151 7.7626 14.953L7.76301 14.9537C7.86859 15.1167 7.92596 15.366 7.79358 15.5998C7.67925 15.8029 7.4639 16.0768 7.2239 16.3065C7.10215 16.4231 6.9653 16.5368 6.82223 16.6267C6.68382 16.7136 6.51345 16.795 6.32886 16.8144M2.67219 16.8144C2.48765 16.7947 2.31729 16.7135 2.17863 16.6264C2.03542 16.5365 1.89849 16.4229 1.77668 16.3064C1.53634 16.0765 1.32102 15.8027 1.2065 15.5999C1.20406 15.5956 1.20171 15.5913 1.19944 15.5869C1.14696 15.4847 1.12376 15.37 1.13242 15.2555C1.1408 15.1447 1.17869 15.0381 1.24208 14.947" fill="black"/>
</svg>
