<svg width="19" height="19" viewBox="0 0 19 19" fill="none" xmlns="http://www.w3.org/2000/svg">
<path d="M12.6752 16.2902C13.0177 16.621 13.5611 16.621 13.9037 16.2902L17.1521 13.1599C17.2399 13.0802 17.3109 12.9838 17.3607 12.8762C17.4106 12.7686 17.4383 12.6521 17.4423 12.5336C17.4463 12.4151 17.4265 12.297 17.384 12.1863C17.3416 12.0756 17.2773 11.9746 17.195 11.8892C17.1128 11.8038 17.0143 11.7358 16.9052 11.6891C16.7962 11.6425 16.679 11.6182 16.5604 11.6178C16.4418 11.6173 16.3244 11.6406 16.215 11.6864C16.1056 11.7322 16.0065 11.7994 15.9236 11.8842L14.1754 13.5686V3.24922C14.1754 3.01425 14.082 2.78891 13.9159 2.62277C13.7497 2.45662 13.5244 2.36328 13.2894 2.36328C13.0545 2.36328 12.8291 2.45662 12.663 2.62277C12.4968 2.78891 12.4035 3.01425 12.4035 3.24922V13.5686L10.6552 11.8842C10.5723 11.7994 10.4732 11.7322 10.3639 11.6864C10.2545 11.6406 10.137 11.6173 10.0185 11.6178C9.89989 11.6182 9.78263 11.6425 9.67361 11.6891C9.56459 11.7358 9.46604 11.8038 9.3838 11.8892C9.30156 11.9746 9.2373 12.0756 9.19482 12.1863C9.15235 12.297 9.13252 12.4151 9.13653 12.5336C9.14053 12.6521 9.16828 12.7686 9.21813 12.8762C9.26798 12.9838 9.33892 13.0802 9.42674 13.1599L12.6752 16.2902ZM6.23736 2.62316C6.07125 2.45725 5.84607 2.36406 5.6113 2.36406C5.37653 2.36406 5.15135 2.45725 4.98524 2.62316L1.7368 5.87159C1.58031 6.03954 1.49511 6.26167 1.49916 6.49119C1.50321 6.7207 1.59619 6.93969 1.75851 7.10201C1.92083 7.26433 2.13981 7.35731 2.36933 7.36136C2.59885 7.36541 2.82098 7.28021 2.98892 7.12372L4.72536 5.38728V15.6523C4.72536 15.8873 4.8187 16.1126 4.98485 16.2788C5.15099 16.4449 5.37633 16.5383 5.6113 16.5383C5.84626 16.5383 6.07161 16.4449 6.23775 16.2788C6.4039 16.1126 6.49724 15.8873 6.49724 15.6523V5.38728L8.23367 7.12372C8.40162 7.28021 8.62375 7.36541 8.85327 7.36136C9.08278 7.35731 9.30177 7.26433 9.46409 7.10201C9.62641 6.93969 9.71939 6.7207 9.72344 6.49119C9.72749 6.26167 9.64229 6.03954 9.4858 5.87159L6.23736 2.62316Z" fill="#0866FF"/>
</svg>
