<svg width="24" height="24" viewBox="0 0 24 24" fill="none" xmlns="http://www.w3.org/2000/svg">
<rect x="24" y="24" width="24" height="24" rx="12" transform="rotate(-180 24 24)" fill="white"/>
<path d="M12.25 15.5C11.2875 15.5 10.5 16.2875 10.5 17.25C10.5 18.2125 11.2875 19 12.25 19C13.2125 19 14 18.2125 14 17.25C14 16.2875 13.2125 15.5 12.25 15.5ZM12.25 13.75C13.2125 13.75 14 12.9625 14 12C14 11.0375 13.2125 10.25 12.25 10.25C11.2875 10.25 10.5 11.0375 10.5 12C10.5 12.9625 11.2875 13.75 12.25 13.75ZM12.25 8.5C13.2125 8.5 14 7.7125 14 6.75C14 5.7875 13.2125 5 12.25 5C11.2875 5 10.5 5.7875 10.5 6.75C10.5 7.7125 11.2875 8.5 12.25 8.5Z" fill="#27323C"/>
</svg>
