<svg width="39" height="20" viewBox="0 0 39 20" fill="none" xmlns="http://www.w3.org/2000/svg">
<g clip-path="url(#clip0_929_19831)">
<path d="M18.2502 4.43731L17.0717 5.61582C16.9154 5.7721 16.8276 5.98406 16.8276 6.20508C16.8276 6.42609 16.9154 6.63805 17.0717 6.79433C17.228 6.95061 17.4399 7.03841 17.6609 7.03841C17.8819 7.03841 18.0939 6.95061 18.2502 6.79433L19.4287 5.61582C20.0538 4.9907 20.9017 4.63951 21.7857 4.63951C22.6698 4.63951 23.5176 4.9907 24.1427 5.61582C24.7679 6.24094 25.1191 7.08879 25.1191 7.97285C25.1191 8.8569 24.7679 9.70475 24.1427 10.3299L22.9642 11.5084C22.808 11.6647 22.7202 11.8766 22.7202 12.0976C22.7202 12.3186 22.808 12.5306 22.9642 12.6869C23.1205 12.8432 23.3325 12.931 23.5535 12.931C23.7745 12.931 23.9865 12.8432 24.1427 12.6869L25.3213 11.5084C26.2589 10.5707 26.7857 9.29893 26.7857 7.97284C26.7857 6.64676 26.2589 5.37499 25.3213 4.43731C24.3836 3.49963 23.1118 2.97284 21.7857 2.97284C20.4596 2.97284 19.1879 3.49963 18.2502 4.43731Z" fill="black"/>
<path d="M20.6066 16.223L21.7851 15.0445C21.9414 14.8882 22.0292 14.6763 22.0292 14.4553C22.0292 14.2343 21.9414 14.0223 21.7851 13.866C21.6288 13.7097 21.4169 13.6219 21.1959 13.6219C20.9748 13.6219 20.7629 13.7097 20.6066 13.866L19.4281 15.0445C18.803 15.6696 17.9551 16.0208 17.0711 16.0208C16.187 16.0208 15.3392 15.6696 14.714 15.0445C14.0889 14.4194 13.7377 13.5716 13.7377 12.6875C13.7377 11.8034 14.0889 10.9556 14.714 10.3305L15.8926 9.15197C16.0488 8.99569 16.1366 8.78372 16.1366 8.56271C16.1366 8.3417 16.0488 8.12973 15.8926 7.97345C15.7363 7.81717 15.5243 7.72938 15.3033 7.72938C15.0823 7.72938 14.8703 7.81717 14.714 7.97345L13.5355 9.15197C12.5979 10.0896 12.0711 11.3614 12.0711 12.6875C12.0711 14.0136 12.5979 15.2854 13.5355 16.223C14.4732 17.1607 15.745 17.6875 17.0711 17.6875C18.3972 17.6875 19.6689 17.1607 20.6066 16.223Z" fill="black"/>
<path d="M15.8939 13.8666C16.0502 14.0229 16.2622 14.1107 16.4832 14.1107C16.7042 14.1107 16.9162 14.0229 17.0725 13.8666L22.965 7.97404C23.1213 7.81776 23.2091 7.6058 23.2091 7.38479C23.2091 7.16377 23.1213 6.95181 22.965 6.79553C22.8087 6.63925 22.5968 6.55145 22.3758 6.55145C22.1547 6.55145 21.9428 6.63925 21.7865 6.79553L15.8939 12.6881C15.7377 12.8444 15.6499 13.0563 15.6499 13.2773C15.6499 13.4984 15.7377 13.7103 15.8939 13.8666Z" fill="black"/>
</g>
<defs>
<clipPath id="clip0_929_19831">
<rect width="38.8374" height="20" fill="white"/>
</clipPath>
</defs>
</svg>
